<svg width="98" height="18" viewBox="0 0 98 18" fill="none" xmlns="http://www.w3.org/2000/svg">
<path d="M5.56491 13.0951C5.47691 13.0952 5.2649 13.0914 4.9289 13.0838C4.59289 13.0762 4.32088 13.0725 4.11288 13.0727L2.80936 17.1421C2.6574 17.1743 2.48943 17.1985 2.30544 17.2147C2.12946 17.2309 1.94947 17.2391 1.76547 17.2393C1.34147 17.2398 0.95741 17.1842 0.613287 17.0726L0.529168 16.9646L5.94728 0.722667C6.13924 0.690455 6.36722 0.666203 6.6312 0.649913C6.90318 0.633613 7.13917 0.625353 7.33917 0.625133C7.53117 0.624922 7.76318 0.632666 8.0352 0.648366C8.30721 0.664066 8.52324 0.691828 8.68329 0.731653L14.1132 16.9617C13.9373 17.0659 13.7214 17.1421 13.4654 17.1904C13.2175 17.2467 12.9655 17.2749 12.7095 17.2752C12.3255 17.2757 12.0294 17.192 11.8212 17.0242C11.613 16.8484 11.4327 16.5086 11.2801 16.0048L10.3289 13.0658C10.1209 13.0661 9.84088 13.0704 9.48889 13.0788C9.1449 13.0872 8.92891 13.0914 8.84091 13.0915L5.56491 13.0951ZM6.2176 6.45837L4.73471 11.104C4.92671 11.1038 5.16271 11.0995 5.4427 11.0912C5.72269 11.0829 5.90669 11.0787 5.99469 11.0786L8.46669 11.0759C8.54669 11.0758 8.71869 11.0796 8.9827 11.0873C9.2547 11.087 9.4947 11.0908 9.70271 11.0985L8.51063 7.39185C8.28586 6.69609 8.06105 5.96434 7.83621 5.19659C7.61136 4.42884 7.4146 3.73705 7.24592 3.12124L7.12592 3.12137C7.0065 3.6495 6.85515 4.23767 6.67186 4.88587C6.48857 5.52607 6.33715 6.05024 6.2176 6.45837ZM16.7965 4.02272C17.5085 4.00593 18.2484 3.98912 19.0164 3.97227C19.7924 3.94742 20.5404 3.93459 21.2604 3.9338C22.8524 3.93204 24.0407 4.22674 24.8254 4.81787C25.618 5.401 26.0149 6.25256 26.0162 7.37256C26.0168 7.96456 25.8374 8.50876 25.478 9.00515C25.1265 9.50154 24.6469 9.85407 24.0391 10.0627C24.7674 10.2539 25.3958 10.6572 25.9245 11.2727C26.4611 11.8801 26.7299 12.5878 26.7308 13.3958C26.7321 14.5398 26.3131 15.4562 25.4738 16.1452C24.6426 16.8341 23.335 17.1795 21.551 17.1815C20.679 17.1824 19.879 17.1753 19.151 17.1601C18.4229 17.1449 17.6429 17.1298 16.8109 17.1147L16.6788 16.9949L16.6646 4.14286L16.7965 4.02272ZM21.2263 5.69784C20.9383 5.69815 20.5783 5.69855 20.1463 5.69903C19.7143 5.6995 19.3303 5.69193 18.9943 5.6763L18.9983 9.32429L21.1823 9.32189C21.8543 9.32115 22.3662 9.22858 22.718 9.0442C23.0698 8.85981 23.3096 8.62754 23.4373 8.3474C23.5729 8.06725 23.6406 7.78318 23.6403 7.49518C23.64 7.19918 23.5757 6.91525 23.4474 6.64339C23.3191 6.36353 23.0788 6.1358 22.7266 5.96018C22.3824 5.78456 21.8823 5.69711 21.2263 5.69784ZM19.0051 15.4323C19.453 15.4238 19.893 15.4193 20.325 15.4188C20.757 15.4104 21.185 15.4059 21.609 15.4054C22.361 15.4046 22.9289 15.292 23.3127 15.0675C23.7044 14.8351 23.9681 14.5548 24.1037 14.2267C24.2474 13.8985 24.319 13.5824 24.3187 13.2784C24.3183 12.9664 24.23 12.6425 24.0536 12.3067C23.8852 11.9709 23.5889 11.6872 23.1647 11.4557C22.7404 11.2242 22.1523 11.1088 21.4003 11.1096L19.0003 11.1123L19.0051 15.4323ZM28.7407 10.5616C28.7392 9.21756 28.9659 8.03331 29.4208 7.00881C29.8836 5.9763 30.5628 5.16755 31.4581 4.58256C32.3615 3.98957 33.4691 3.69235 34.7811 3.6909C36.1091 3.68944 37.2214 3.98021 38.1181 4.56322C39.0227 5.14623 39.7036 5.95348 40.1608 6.98498C40.6259 8.01646 40.8592 9.20421 40.8607 10.5482C40.8622 11.8842 40.6315 13.0685 40.1686 14.101C39.7057 15.1335 39.0226 15.9422 38.1193 16.5272C37.2159 17.1042 36.1082 17.3934 34.7962 17.3949C33.4762 17.3963 32.3679 17.1056 31.4713 16.5226C30.5746 15.9315 29.8937 15.1203 29.4286 14.0888C28.9714 13.0573 28.7421 11.8816 28.7407 10.5616ZM31.1887 10.5589C31.1893 11.1109 31.2419 11.6788 31.3466 12.2627C31.4512 12.8466 31.6318 13.3904 31.8884 13.8941C32.1449 14.3898 32.5094 14.7934 32.9817 15.1049C33.454 15.4084 34.0582 15.5597 34.7942 15.5589C35.5382 15.5581 36.146 15.4054 36.6177 15.1009C37.0894 14.7884 37.4529 14.384 37.7084 13.8877C37.9638 13.3834 38.1392 12.8392 38.2346 12.2551C38.3379 11.671 38.3893 11.1029 38.3887 10.5509C38.3881 9.99093 38.3354 9.41899 38.2308 8.8351C38.1341 8.24321 37.9575 7.6994 37.701 7.20369C37.4444 6.69997 37.08 6.29637 36.6077 5.99289C36.1353 5.68141 35.5271 5.52608 34.7832 5.5269C34.0472 5.52771 33.4433 5.68438 32.9717 5.9969C32.5 6.30142 32.1364 6.70582 31.881 7.2101C31.6255 7.70638 31.4461 8.25058 31.3428 8.84269C31.2394 9.42681 31.1881 9.99886 31.1887 10.5589ZM54.5281 12.4292C54.5299 14.0292 54.0433 15.2537 53.0682 16.1028C52.1011 16.9518 50.7816 17.3773 49.1096 17.3791C47.4456 17.381 46.1251 16.9584 45.1482 16.1115C44.1793 15.2646 43.6939 14.0411 43.6921 12.4411L43.6829 4.02909L43.8027 3.89696L44.7027 3.89597C45.1827 3.89544 45.5269 4.01906 45.7351 4.26683C45.9434 4.5066 46.0478 4.89049 46.0484 5.41849L46.0561 12.4265C46.0572 13.4105 46.3141 14.1662 46.8266 14.6936C47.3392 15.2211 48.0995 15.4842 49.1075 15.4831C50.1315 15.482 50.8952 15.2172 51.3986 14.6886C51.902 14.16 52.1532 13.4038 52.1521 12.4198L52.1428 3.98377C52.3188 3.95158 52.5108 3.92737 52.7188 3.91114C52.9267 3.89491 53.1187 3.8867 53.2947 3.8865C53.4707 3.88631 53.6707 3.89409 53.8948 3.90984C54.1268 3.92559 54.3348 3.95336 54.5188 3.99315L54.5281 12.4292ZM60.4389 7.33464C60.4386 7.07864 60.4424 6.84663 60.4501 6.63862C60.4579 6.42261 60.4616 6.17861 60.4613 5.90661C60.3093 5.90678 60.0973 5.91101 59.8253 5.91931C59.5614 5.9276 59.3534 5.93183 59.2014 5.932L56.6454 5.93481C56.6132 5.76685 56.589 5.59888 56.5728 5.43089C56.5566 5.26291 56.5485 5.11092 56.5483 4.97492C56.5481 4.83092 56.556 4.67091 56.5718 4.49489C56.5876 4.31888 56.6114 4.14685 56.6432 3.97882L66.5192 3.96793C66.5594 4.10389 66.5915 4.25985 66.6157 4.43583C66.6399 4.6038 66.6521 4.74779 66.6522 4.86779C66.6526 5.21179 66.5609 5.47589 66.3771 5.66009C66.2013 5.83629 65.8694 5.92465 65.3814 5.92519L64.0134 5.9267C63.8694 5.92686 63.6614 5.92308 63.3893 5.91538C63.1253 5.90768 62.9213 5.9039 62.7773 5.90406C62.7776 6.17606 62.7819 6.42005 62.7901 6.63604C62.7984 6.84404 62.8026 7.07603 62.8029 7.33203L62.8136 17.052C62.6617 17.0842 62.4737 17.1084 62.2497 17.1246C62.0257 17.1409 61.8217 17.1491 61.6377 17.1493C61.4617 17.1495 61.2617 17.1417 61.0377 17.126C60.8137 17.1102 60.6177 17.0864 60.4496 17.0546L60.4389 7.33464ZM84.7156 12.3959C84.7174 13.9959 84.2307 15.2204 83.2557 16.0695C82.2886 16.9186 80.9691 17.344 79.2971 17.3459C77.6331 17.3477 76.3126 16.9252 75.3357 16.0782C74.3667 15.2313 73.8814 14.0078 73.8796 12.4078L73.8704 3.99584L73.9902 3.8637L74.8902 3.86271C75.3702 3.86218 75.7144 3.9858 75.9226 4.23357C76.1309 4.47335 76.2353 4.85723 76.2359 5.38523L76.2436 12.3932C76.2447 13.3772 76.5015 14.1329 77.0141 14.6604C77.5267 15.1878 78.287 15.451 79.295 15.4499C80.319 15.4487 81.0827 15.1839 81.5861 14.6553C82.0895 14.1268 82.3407 13.3705 82.3396 12.3865L82.3303 3.95051C82.5063 3.91832 82.6983 3.89411 82.9062 3.87788C83.1142 3.86165 83.3062 3.85344 83.4822 3.85325C83.6582 3.85305 83.8582 3.86083 84.0822 3.87658C84.3143 3.89233 84.5223 3.9201 84.7063 3.9599L84.7156 12.3959ZM87.2519 15.9331C87.2596 15.6211 87.3512 15.289 87.5268 14.9368C87.7104 14.5846 87.9301 14.3244 88.1859 14.1561C88.7303 14.4755 89.3546 14.7708 90.0589 15.042C90.7632 15.3052 91.5273 15.4324 92.3513 15.4235C93.0393 15.4147 93.6351 15.2501 94.1388 14.9295C94.6424 14.601 94.8939 14.1607 94.8933 13.6087C94.8924 12.7527 94.2717 12.1214 93.0313 11.7147L90.7263 10.8533C89.774 10.5343 89.0135 10.1072 88.4449 9.57178C87.8843 9.0284 87.6035 8.32871 87.6026 7.47271C87.6014 6.40871 88.0124 5.50826 88.8356 4.77135C89.6588 4.03444 90.8264 3.65315 92.3383 3.62749C93.1623 3.61858 93.9784 3.71768 94.7867 3.92479C95.6029 4.12389 96.2911 4.35513 96.8514 4.61852C96.8518 4.96252 96.7762 5.3026 96.6246 5.63877C96.4809 5.96693 96.2812 6.23115 96.0254 6.43143C95.4491 6.16806 94.8209 5.95675 94.1407 5.7975C93.4686 5.63824 92.8525 5.56292 92.2925 5.57154C91.5965 5.58031 91.0527 5.74091 90.661 6.05334C90.2694 6.36577 90.0738 6.76599 90.0743 7.25399C90.0748 7.65398 90.2231 7.95782 90.5193 8.1655C90.8236 8.37316 91.2598 8.57668 91.828 8.77605L94.049 9.62561C95.0013 9.95256 95.7978 10.4277 96.4385 11.051C97.0872 11.6663 97.412 12.4339 97.4131 13.3539C97.4144 14.5379 96.9554 15.4944 96.0362 16.2234C95.125 16.9444 93.8974 17.3138 92.3534 17.3315C91.2095 17.3407 90.2013 17.1939 89.329 16.8908C88.4566 16.5878 87.7643 16.2685 87.2519 15.9331Z" fill="white"/>
</svg>
