<svg width="133" height="18" viewBox="0 0 133 18" fill="none" xmlns="http://www.w3.org/2000/svg">
<path d="M5.544 12.98C5.456 12.98 5.244 12.976 4.908 12.968C4.572 12.96 4.3 12.956 4.092 12.956L2.784 17.024C2.632 17.056 2.464 17.08 2.28 17.096C2.104 17.112 1.924 17.12 1.74 17.12C1.316 17.12 0.932 17.064 0.588 16.952L0.504 16.844L5.94 0.607999C6.132 0.575999 6.36 0.551999 6.624 0.535999C6.896 0.519999 7.132 0.511999 7.332 0.511999C7.524 0.511999 7.756 0.519999 8.028 0.535999C8.3 0.551999 8.516 0.579999 8.676 0.62L14.088 16.856C13.912 16.96 13.696 17.036 13.44 17.084C13.192 17.14 12.94 17.168 12.684 17.168C12.3 17.168 12.004 17.084 11.796 16.916C11.588 16.74 11.408 16.4 11.256 15.896L10.308 12.956C10.1 12.956 9.82 12.96 9.468 12.968C9.124 12.976 8.908 12.98 8.82 12.98H5.544ZM6.204 6.344L4.716 10.988C4.908 10.988 5.144 10.984 5.424 10.976C5.704 10.968 5.888 10.964 5.976 10.964H8.448C8.528 10.964 8.7 10.968 8.964 10.976C9.236 10.976 9.476 10.98 9.684 10.988L8.496 7.28C8.272 6.584 8.048 5.852 7.824 5.084C7.6 4.316 7.404 3.624 7.236 3.008H7.116C6.996 3.536 6.844 4.124 6.66 4.772C6.476 5.412 6.324 5.936 6.204 6.344ZM24.3936 8.948C24.3856 8.356 24.2936 7.8 24.1176 7.28C23.9496 6.76 23.6536 6.336 23.2296 6.008C22.8056 5.68 22.2136 5.516 21.4536 5.516C19.1816 5.516 18.0456 7.18 18.0456 10.508C18.0456 12.124 18.3696 13.328 19.0176 14.12C19.6736 14.912 20.5216 15.308 21.5616 15.308C22.1856 15.308 22.8136 15.18 23.4456 14.924C24.0776 14.66 24.7016 14.3 25.3176 13.844C25.5816 13.996 25.8256 14.224 26.0496 14.528C26.2736 14.832 26.4176 15.112 26.4816 15.368C25.8816 15.904 25.1296 16.364 24.2256 16.748C23.3296 17.124 22.3256 17.312 21.2136 17.312C20.1736 17.312 19.2936 17.12 18.5736 16.736C17.8616 16.352 17.2856 15.836 16.8456 15.188C16.4056 14.532 16.0856 13.8 15.8856 12.992C15.6936 12.184 15.5976 11.352 15.5976 10.496C15.5976 8.888 15.8696 7.58 16.4136 6.572C16.9656 5.556 17.6896 4.808 18.5856 4.328C19.4896 3.848 20.4656 3.608 21.5136 3.608C22.6896 3.608 23.6536 3.82 24.4056 4.244C25.1656 4.668 25.7296 5.196 26.0976 5.828C26.4656 6.452 26.6496 7.08 26.6496 7.712C26.6496 8.104 26.5496 8.428 26.3496 8.684C26.1576 8.94 25.8056 9.068 25.2936 9.068C25.1336 9.068 24.9816 9.056 24.8376 9.032C24.6936 9.008 24.5456 8.98 24.3936 8.948ZM37.0967 8.948C37.0887 8.356 36.9967 7.8 36.8207 7.28C36.6527 6.76 36.3567 6.336 35.9327 6.008C35.5087 5.68 34.9167 5.516 34.1567 5.516C31.8847 5.516 30.7487 7.18 30.7487 10.508C30.7487 12.124 31.0727 13.328 31.7207 14.12C32.3767 14.912 33.2247 15.308 34.2647 15.308C34.8887 15.308 35.5167 15.18 36.1487 14.924C36.7807 14.66 37.4047 14.3 38.0207 13.844C38.2847 13.996 38.5287 14.224 38.7527 14.528C38.9767 14.832 39.1207 15.112 39.1847 15.368C38.5847 15.904 37.8327 16.364 36.9287 16.748C36.0327 17.124 35.0287 17.312 33.9167 17.312C32.8767 17.312 31.9967 17.12 31.2767 16.736C30.5647 16.352 29.9887 15.836 29.5487 15.188C29.1087 14.532 28.7887 13.8 28.5887 12.992C28.3967 12.184 28.3007 11.352 28.3007 10.496C28.3007 8.888 28.5727 7.58 29.1167 6.572C29.6687 5.556 30.3927 4.808 31.2887 4.328C32.1927 3.848 33.1687 3.608 34.2167 3.608C35.3927 3.608 36.3567 3.82 37.1087 4.244C37.8687 4.668 38.4327 5.196 38.8007 5.828C39.1687 6.452 39.3527 7.08 39.3527 7.712C39.3527 8.104 39.2527 8.428 39.0527 8.684C38.8607 8.94 38.5087 9.068 37.9967 9.068C37.8367 9.068 37.6847 9.056 37.5407 9.032C37.3967 9.008 37.2487 8.98 37.0967 8.948ZM51.3319 15.044C51.3319 15.788 51.2159 16.304 50.9839 16.592C50.7519 16.872 50.3639 17.012 49.8199 17.012H43.5919C43.1759 17.012 42.8439 16.888 42.5959 16.64C42.3479 16.384 42.2239 16.036 42.2239 15.596V4.052L42.3559 3.92H50.9479C50.9799 4.088 50.9999 4.252 51.0079 4.412C51.0159 4.572 51.0199 4.72 51.0199 4.856C51.0199 4.984 51.0039 5.14 50.9719 5.324C50.9479 5.508 50.9039 5.692 50.8399 5.876H45.9079C45.7479 5.876 45.5439 5.876 45.2959 5.876C45.0479 5.868 44.7959 5.864 44.5399 5.864C44.5399 6.04 44.5439 6.228 44.5519 6.428C44.5599 6.628 44.5639 6.848 44.5639 7.088V9.416C44.8119 9.408 45.0559 9.404 45.2959 9.404C45.5439 9.404 45.7479 9.404 45.9079 9.404H49.7599C49.8159 9.556 49.8479 9.724 49.8559 9.908C49.8719 10.084 49.8799 10.232 49.8799 10.352C49.8799 10.488 49.8719 10.648 49.8559 10.832C49.8479 11.008 49.8159 11.172 49.7599 11.324H45.9079C45.7479 11.324 45.5439 11.324 45.2959 11.324C45.0559 11.316 44.8119 11.312 44.5639 11.312V14.06C44.5639 14.252 44.5599 14.436 44.5519 14.612C44.5439 14.788 44.5399 14.948 44.5399 15.092C44.7479 15.076 44.9599 15.064 45.1759 15.056C45.3999 15.048 45.6639 15.044 45.9679 15.044H51.3319ZM53.1028 15.908C53.1108 15.596 53.2028 15.264 53.3788 14.912C53.5628 14.56 53.7828 14.3 54.0388 14.132C54.5828 14.452 55.2068 14.748 55.9108 15.02C56.6148 15.284 57.3788 15.412 58.2028 15.404C58.8908 15.396 59.4868 15.232 59.9908 14.912C60.4948 14.584 60.7468 14.144 60.7468 13.592C60.7468 12.736 60.1268 12.104 58.8868 11.696L56.5828 10.832C55.6308 10.512 54.8708 10.084 54.3028 9.548C53.7428 9.004 53.4628 8.304 53.4628 7.448C53.4628 6.384 53.8748 5.484 54.6988 4.748C55.5228 4.012 56.6908 3.632 58.2028 3.608C59.0268 3.6 59.8428 3.7 60.6508 3.908C61.4668 4.108 62.1548 4.34 62.7148 4.604C62.7148 4.948 62.6388 5.288 62.4868 5.624C62.3428 5.952 62.1428 6.216 61.8868 6.416C61.3108 6.152 60.6828 5.94 60.0028 5.78C59.3308 5.62 58.7148 5.544 58.1548 5.552C57.4588 5.56 56.9148 5.72 56.5228 6.032C56.1308 6.344 55.9348 6.744 55.9348 7.232C55.9348 7.632 56.0828 7.936 56.3788 8.144C56.6828 8.352 57.1188 8.556 57.6868 8.756L59.9068 9.608C60.8588 9.936 61.6548 10.412 62.2948 11.036C62.9428 11.652 63.2668 12.42 63.2668 13.34C63.2668 14.524 62.8068 15.48 61.8868 16.208C60.9748 16.928 59.7468 17.296 58.2028 17.312C57.0588 17.32 56.0508 17.172 55.1788 16.868C54.3068 16.564 53.6148 16.244 53.1028 15.908ZM65.0325 15.908C65.0405 15.596 65.1325 15.264 65.3085 14.912C65.4925 14.56 65.7125 14.3 65.9685 14.132C66.5125 14.452 67.1365 14.748 67.8405 15.02C68.5445 15.284 69.3085 15.412 70.1325 15.404C70.8205 15.396 71.4165 15.232 71.9205 14.912C72.4245 14.584 72.6765 14.144 72.6765 13.592C72.6765 12.736 72.0565 12.104 70.8165 11.696L68.5125 10.832C67.5605 10.512 66.8005 10.084 66.2325 9.548C65.6725 9.004 65.3925 8.304 65.3925 7.448C65.3925 6.384 65.8045 5.484 66.6285 4.748C67.4525 4.012 68.6205 3.632 70.1325 3.608C70.9565 3.6 71.7725 3.7 72.5805 3.908C73.3965 4.108 74.0845 4.34 74.6445 4.604C74.6445 4.948 74.5685 5.288 74.4165 5.624C74.2725 5.952 74.0725 6.216 73.8165 6.416C73.2405 6.152 72.6125 5.94 71.9325 5.78C71.2605 5.62 70.6445 5.544 70.0845 5.552C69.3885 5.56 68.8445 5.72 68.4525 6.032C68.0605 6.344 67.8645 6.744 67.8645 7.232C67.8645 7.632 68.0125 7.936 68.3085 8.144C68.6125 8.352 69.0485 8.556 69.6165 8.756L71.8365 9.608C72.7885 9.936 73.5845 10.412 74.2245 11.036C74.8725 11.652 75.1965 12.42 75.1965 13.34C75.1965 14.524 74.7365 15.48 73.8165 16.208C72.9045 16.928 71.6765 17.296 70.1325 17.312C68.9885 17.32 67.9805 17.172 67.1085 16.868C66.2365 16.564 65.5445 16.244 65.0325 15.908ZM77.0273 10.472C77.0273 9.128 77.2553 7.944 77.7113 6.92C78.1753 5.888 78.8553 5.08 79.7513 4.496C80.6553 3.904 81.7633 3.608 83.0753 3.608C84.4033 3.608 85.5153 3.9 86.4113 4.484C87.3153 5.068 87.9953 5.876 88.4513 6.908C88.9153 7.94 89.1473 9.128 89.1473 10.472C89.1473 11.808 88.9153 12.992 88.4513 14.024C87.9873 15.056 87.3033 15.864 86.3993 16.448C85.4953 17.024 84.3873 17.312 83.0753 17.312C81.7553 17.312 80.6473 17.02 79.7513 16.436C78.8553 15.844 78.1753 15.032 77.7113 14C77.2553 12.968 77.0273 11.792 77.0273 10.472ZM79.4753 10.472C79.4753 11.024 79.5273 11.592 79.6313 12.176C79.7353 12.76 79.9153 13.304 80.1713 13.808C80.4273 14.304 80.7913 14.708 81.2633 15.02C81.7353 15.324 82.3393 15.476 83.0753 15.476C83.8193 15.476 84.4273 15.324 84.8993 15.02C85.3713 14.708 85.7353 14.304 85.9913 13.808C86.2473 13.304 86.4233 12.76 86.5193 12.176C86.6233 11.592 86.6753 11.024 86.6753 10.472C86.6753 9.912 86.6233 9.34 86.5193 8.756C86.4233 8.164 86.2473 7.62 85.9913 7.124C85.7353 6.62 85.3713 6.216 84.8993 5.912C84.4273 5.6 83.8193 5.444 83.0753 5.444C82.3393 5.444 81.7353 5.6 81.2633 5.912C80.7913 6.216 80.4273 6.62 80.1713 7.124C79.9153 7.62 79.7353 8.164 79.6313 8.756C79.5273 9.34 79.4753 9.912 79.4753 10.472ZM101.877 7.736C101.877 8.592 101.601 9.332 101.049 9.956C100.497 10.572 99.8406 10.972 99.0806 11.156C99.4726 11.308 99.7886 11.52 100.029 11.792C100.269 12.064 100.477 12.396 100.653 12.788L101.589 14.888C101.733 15.2 101.881 15.492 102.033 15.764C102.193 16.036 102.361 16.256 102.537 16.424C102.385 16.64 102.161 16.816 101.865 16.952C101.577 17.088 101.277 17.156 100.965 17.156C100.565 17.156 100.257 17.052 100.041 16.844C99.8246 16.636 99.6286 16.324 99.4526 15.908L98.2646 13.208C98.0646 12.744 97.8126 12.396 97.5086 12.164C97.2126 11.932 96.7566 11.816 96.1406 11.816H94.5446V17C94.3606 17.032 94.1646 17.056 93.9566 17.072C93.7486 17.088 93.5526 17.096 93.3686 17.096C93.2006 17.096 93.0046 17.088 92.7806 17.072C92.5646 17.056 92.3686 17.032 92.1926 17V4.04L92.3246 3.92C93.1566 3.896 93.9446 3.876 94.6886 3.86C95.4326 3.844 96.1886 3.836 96.9566 3.836C98.4446 3.836 99.6366 4.164 100.533 4.82C101.429 5.468 101.877 6.44 101.877 7.736ZM94.5446 5.624V9.968C94.9686 9.96 95.3846 9.952 95.7926 9.944C96.2006 9.936 96.5406 9.932 96.8126 9.932C97.5006 9.932 98.0326 9.824 98.4086 9.608C98.7846 9.384 99.0446 9.104 99.1886 8.768C99.3406 8.432 99.4166 8.1 99.4166 7.772C99.4166 7.428 99.3406 7.096 99.1886 6.776C99.0446 6.448 98.7886 6.18 98.4206 5.972C98.0526 5.756 97.5366 5.648 96.8726 5.648C96.5446 5.648 96.1646 5.648 95.7326 5.648C95.3006 5.648 94.9046 5.64 94.5446 5.624ZM105.331 3.92C105.499 3.888 105.695 3.864 105.919 3.848C106.151 3.832 106.351 3.824 106.519 3.824C106.703 3.824 106.899 3.832 107.107 3.848C107.315 3.864 107.511 3.888 107.695 3.92V17C107.511 17.032 107.315 17.056 107.107 17.072C106.899 17.088 106.703 17.096 106.519 17.096C106.351 17.096 106.151 17.088 105.919 17.072C105.695 17.056 105.499 17.032 105.331 17V3.92ZM120.988 15.044C120.988 15.788 120.872 16.304 120.64 16.592C120.408 16.872 120.02 17.012 119.476 17.012H113.248C112.832 17.012 112.5 16.888 112.252 16.64C112.004 16.384 111.88 16.036 111.88 15.596V4.052L112.012 3.92H120.604C120.636 4.088 120.656 4.252 120.664 4.412C120.672 4.572 120.676 4.72 120.676 4.856C120.676 4.984 120.66 5.14 120.628 5.324C120.604 5.508 120.56 5.692 120.496 5.876H115.564C115.404 5.876 115.2 5.876 114.952 5.876C114.704 5.868 114.452 5.864 114.196 5.864C114.196 6.04 114.2 6.228 114.208 6.428C114.216 6.628 114.22 6.848 114.22 7.088V9.416C114.468 9.408 114.712 9.404 114.952 9.404C115.2 9.404 115.404 9.404 115.564 9.404H119.416C119.472 9.556 119.504 9.724 119.512 9.908C119.528 10.084 119.536 10.232 119.536 10.352C119.536 10.488 119.528 10.648 119.512 10.832C119.504 11.008 119.472 11.172 119.416 11.324H115.564C115.404 11.324 115.2 11.324 114.952 11.324C114.712 11.316 114.468 11.312 114.22 11.312V14.06C114.22 14.252 114.216 14.436 114.208 14.612C114.2 14.788 114.196 14.948 114.196 15.092C114.404 15.076 114.616 15.064 114.832 15.056C115.056 15.048 115.32 15.044 115.624 15.044H120.988ZM122.759 15.908C122.767 15.596 122.859 15.264 123.035 14.912C123.219 14.56 123.439 14.3 123.695 14.132C124.239 14.452 124.863 14.748 125.567 15.02C126.271 15.284 127.035 15.412 127.859 15.404C128.547 15.396 129.143 15.232 129.647 14.912C130.151 14.584 130.403 14.144 130.403 13.592C130.403 12.736 129.783 12.104 128.543 11.696L126.239 10.832C125.287 10.512 124.527 10.084 123.959 9.548C123.399 9.004 123.119 8.304 123.119 7.448C123.119 6.384 123.531 5.484 124.355 4.748C125.179 4.012 126.347 3.632 127.859 3.608C128.683 3.6 129.499 3.7 130.307 3.908C131.123 4.108 131.811 4.34 132.371 4.604C132.371 4.948 132.295 5.288 132.143 5.624C131.999 5.952 131.799 6.216 131.543 6.416C130.967 6.152 130.339 5.94 129.659 5.78C128.987 5.62 128.371 5.544 127.811 5.552C127.115 5.56 126.571 5.72 126.179 6.032C125.787 6.344 125.591 6.744 125.591 7.232C125.591 7.632 125.739 7.936 126.035 8.144C126.339 8.352 126.775 8.556 127.343 8.756L129.563 9.608C130.515 9.936 131.311 10.412 131.951 11.036C132.599 11.652 132.923 12.42 132.923 13.34C132.923 14.524 132.463 15.48 131.543 16.208C130.631 16.928 129.403 17.296 127.859 17.312C126.715 17.32 125.707 17.172 124.835 16.868C123.963 16.564 123.271 16.244 122.759 15.908Z" fill="black"/>
</svg>
