<svg width="88" height="18" viewBox="0 0 88 18" fill="none" xmlns="http://www.w3.org/2000/svg">
<path d="M10.1494 6.27294C10.1487 5.67294 10.0441 5.07305 9.83541 4.47328C9.63475 3.8735 9.2822 3.37389 8.77776 2.97445C8.28132 2.57499 7.5931 2.37575 6.7131 2.37672C5.4171 2.37815 4.43372 2.94323 3.76297 4.07197C3.0922 5.19271 2.75801 6.83708 2.7604 9.00508C2.76262 11.0211 3.12434 12.5807 3.84556 13.6839C4.56676 14.7791 5.56337 15.326 6.83537 15.3246C7.57137 15.3238 8.29519 15.167 9.00685 14.8542C9.7185 14.5414 10.43 14.0846 11.1413 13.4839C11.4055 13.6516 11.6538 13.8833 11.8861 14.179C12.1184 14.4668 12.2747 14.7506 12.355 15.0305C11.6998 15.6952 10.8524 16.2602 9.81291 16.7253C8.78142 17.1905 7.65768 17.4237 6.44168 17.425C5.30568 17.4263 4.34142 17.1913 3.5489 16.7202C2.76438 16.2491 2.12768 15.6138 1.6388 14.8143C1.14992 14.0149 0.792928 13.1153 0.567826 12.1155C0.350716 11.1077 0.24157 10.0679 0.240389 8.99586C0.238203 7.01186 0.536414 5.38753 1.13502 4.12287C1.73363 2.85821 2.5246 1.92534 3.50794 1.32425C4.49927 0.71516 5.57893 0.40997 6.74693 0.408684C7.93093 0.407379 8.95118 0.630255 9.80767 1.07731C10.6642 1.51637 11.3248 2.09164 11.7896 2.80313C12.2623 3.50661 12.4992 4.25435 12.5 5.04635C12.5005 5.44635 12.3969 5.77846 12.1891 6.04269C11.9894 6.29891 11.6416 6.4273 11.1456 6.42784C10.9616 6.42804 10.7936 6.41623 10.6415 6.3924C10.4975 6.36856 10.3335 6.32874 10.1494 6.27294ZM14.3345 10.5763C14.333 9.23233 14.5597 8.04808 15.0145 7.02358C15.4774 5.99107 16.1565 5.18232 17.0519 4.59733C17.9552 4.00434 19.0629 3.70712 20.3749 3.70567C21.7029 3.70421 22.8152 3.99498 23.7118 4.57799C24.6165 5.161 25.2974 5.96825 25.7545 6.99975C26.2197 8.03124 26.453 9.21898 26.4544 10.563C26.4559 11.899 26.2252 13.0832 25.7624 14.1157C25.2995 15.1483 24.6164 15.957 23.713 16.542C22.8097 17.119 21.702 17.4082 20.39 17.4097C19.07 17.4111 17.9617 17.1203 17.065 16.5373C16.1684 15.9463 15.4875 15.1351 15.0223 14.1036C14.5652 13.0721 14.3359 11.8963 14.3345 10.5763ZM16.7824 10.5736C16.7831 11.1256 16.8357 11.6936 16.9403 12.2775C17.045 12.8613 17.2256 13.4051 17.4821 13.9089C17.7387 14.4046 18.1031 14.8082 18.5755 15.1197C19.0478 15.4231 19.652 15.5745 20.388 15.5737C21.132 15.5728 21.7398 15.4202 22.2115 15.1157C22.6831 14.8031 23.0467 14.3987 23.3021 13.9025C23.5576 13.3982 23.733 12.854 23.8283 12.2699C23.9317 11.6858 23.9831 11.1177 23.9824 10.5657C23.9818 10.0057 23.9292 9.43376 23.8246 8.84987C23.7279 8.25798 23.5513 7.71417 23.2948 7.21846C23.0382 6.71474 22.6738 6.31114 22.2014 6.00766C21.7291 5.69618 21.1209 5.54085 20.3769 5.54167C19.6409 5.54248 19.0371 5.69915 18.5654 6.01167C18.0938 6.31619 17.7302 6.72059 17.4748 7.22487C17.2193 7.72115 17.0399 8.26535 16.9366 8.85746C16.8332 9.44158 16.7818 10.0136 16.7824 10.5736ZM33.0866 9.47567C32.8702 9.09991 32.6297 8.65617 32.3652 8.14446C32.1006 7.62476 31.8721 7.18101 31.6797 6.81322L31.5837 6.83732C31.6082 7.3013 31.6328 7.82927 31.6575 8.42124C31.6821 9.00522 31.6987 9.5652 31.7073 10.1012C31.7239 10.6292 31.7323 11.0412 31.7327 11.3372L31.739 17.0852C31.539 17.1174 31.3431 17.1416 31.1511 17.1578C30.9671 17.174 30.7951 17.1822 30.6351 17.1824C30.4751 17.1826 30.2951 17.1748 30.0951 17.159C29.8951 17.1432 29.699 17.1194 29.507 17.0876L29.4926 4.04363C29.6846 4.00342 29.9126 3.97116 30.1765 3.94687C30.4485 3.92257 30.6765 3.91032 30.8605 3.91012C31.0605 3.9099 31.2885 3.91765 31.5445 3.93337C31.8085 3.94107 32.0326 3.96483 32.2166 4.00463L36.653 11.6317C36.8694 11.9995 37.1139 12.4632 37.3865 13.0229C37.6672 13.5826 37.9077 14.0464 38.1081 14.4141L38.216 14.39C38.1836 13.9741 38.147 13.4741 38.1064 12.8901C38.0737 12.2982 38.0451 11.7222 38.0205 11.1622C37.9959 10.6023 37.9834 10.1503 37.983 9.80628L37.978 5.29428C37.9774 4.77428 38.0731 4.41417 38.2648 4.21396C38.4566 4.00575 38.7925 3.90138 39.2725 3.90085L40.1125 3.89993L40.2446 4.03178L40.259 17.0518C40.059 17.092 39.8271 17.1202 39.5631 17.1365C39.3071 17.1608 39.0831 17.1731 38.8911 17.1733C38.6991 17.1735 38.4631 17.1658 38.1831 17.1501C37.9111 17.1424 37.687 17.1186 37.511 17.0788L33.0866 9.47567ZM46.4077 7.34899C46.4074 7.09299 46.4111 6.86099 46.4189 6.65298C46.4267 6.43697 46.4304 6.19297 46.4301 5.92097C46.2781 5.92113 46.0661 5.92537 45.7941 5.93367C45.5301 5.94196 45.3221 5.94619 45.1701 5.94636L42.6141 5.94917C42.5819 5.78121 42.5578 5.61323 42.5416 5.44525C42.5254 5.27727 42.5172 5.12528 42.5171 4.98928C42.5169 4.84528 42.5247 4.68527 42.5405 4.50925C42.5563 4.33323 42.5802 4.16121 42.612 3.99317L52.488 3.98229C52.5281 4.11825 52.5603 4.27421 52.5845 4.45019C52.6087 4.61816 52.6208 4.76214 52.621 4.88214C52.6213 5.22614 52.5296 5.49025 52.3458 5.67445C52.17 5.85064 51.8381 5.93901 51.3501 5.93955L49.9821 5.94105C49.8381 5.94121 49.6301 5.93744 49.3581 5.92974C49.0941 5.92203 48.8901 5.91826 48.7461 5.91842C48.7464 6.19042 48.7507 6.43441 48.7589 6.6504C48.7671 6.85839 48.7714 7.09039 48.7717 7.34639L48.7824 17.0664C48.6304 17.0986 48.4424 17.1228 48.2185 17.139C47.9945 17.1553 47.7905 17.1635 47.6065 17.1637C47.4305 17.1639 47.2305 17.1561 47.0065 17.1403C46.7824 17.1246 46.5864 17.1008 46.4184 17.069L46.4077 7.34899ZM56.4895 14.0819C56.4015 14.082 56.2015 14.0782 55.8895 14.0706C55.5854 14.0629 55.3414 14.0592 55.1574 14.0594L54.0808 17.0725C53.8008 17.1449 53.4649 17.1812 53.0729 17.1817C52.6089 17.1822 52.2408 17.1266 51.9687 17.0149L51.8966 16.895L56.6703 3.97768C56.8623 3.94547 57.0943 3.92122 57.3663 3.90492C57.6382 3.88062 57.8742 3.86836 58.0742 3.86814C58.2582 3.86793 58.4742 3.8797 58.7223 3.90342C58.9783 3.91914 59.2023 3.94289 59.3943 3.97468L64.1726 16.9414C63.9887 17.0296 63.7688 17.0979 63.5128 17.1462C63.2649 17.1944 63.0329 17.2187 62.8169 17.2189C62.4889 17.2193 62.2129 17.1516 61.9887 17.0158C61.7726 16.8801 61.5842 16.5803 61.4237 16.1165L60.6894 14.0533C60.5294 14.0534 60.3014 14.0577 60.0054 14.066C59.7175 14.0743 59.5255 14.0785 59.4295 14.0787L56.4895 14.0819ZM56.8921 9.17344L55.8273 12.1506C56.0033 12.1504 56.2113 12.1462 56.4513 12.1379C56.6993 12.1297 56.8633 12.1255 56.9433 12.1254L59.0313 12.1231C59.1113 12.123 59.2553 12.1268 59.4633 12.1346C59.6713 12.1424 59.8553 12.1462 60.0153 12.146L59.1366 9.67497C58.96 9.16316 58.7594 8.55139 58.5346 7.83963C58.3178 7.12787 58.1291 6.50408 57.9685 5.96825L57.8605 5.96837C57.7171 6.48053 57.5537 7.04471 57.3704 7.66091C57.1871 8.26912 57.0276 8.77329 56.8921 9.17344ZM73.9412 8.98666C73.9326 8.39467 73.84 7.83877 73.6634 7.31896C73.4948 6.79915 73.1984 6.37548 72.774 6.04794C72.3496 5.72041 71.7575 5.55706 70.9975 5.5579C68.7255 5.5604 67.5913 7.22565 67.595 10.5537C67.5967 12.1697 67.9221 13.3733 68.5709 14.1646C69.2278 14.9559 70.0762 15.3509 71.1162 15.3498C71.7402 15.3491 72.3681 15.2204 72.9998 14.9637C73.6315 14.699 74.2551 14.3383 74.8706 13.8816C75.1348 14.0333 75.379 14.2611 75.6034 14.5648C75.8277 14.8686 75.972 15.1484 76.0363 15.4044C75.4369 15.941 74.6854 16.4018 73.7818 16.7868C72.8862 17.1638 71.8825 17.3529 70.7705 17.3542C69.7305 17.3553 68.8502 17.1643 68.1298 16.7811C67.4174 16.3979 66.8408 15.8825 66.4001 15.235C65.9594 14.5795 65.6386 13.8478 65.4377 13.04C65.2448 12.2322 65.1479 11.4003 65.1469 10.5443C65.1452 8.93635 65.4157 7.62805 65.9586 6.61945C66.5095 5.60284 67.2327 4.85405 68.1282 4.37306C69.0316 3.89206 70.0074 3.65099 71.0554 3.64983C72.2314 3.64854 73.1956 3.85948 73.9481 4.28265C74.7085 4.70581 75.2731 5.23319 75.6418 5.86478C76.0105 6.48838 76.1952 7.11617 76.1959 7.74817C76.1963 8.14017 76.0967 8.46428 75.8969 8.7205C75.7052 8.97672 75.3534 9.1051 74.8414 9.10567C74.6814 9.10584 74.5294 9.09401 74.3853 9.07017C74.2413 9.04633 74.0933 9.01849 73.9412 8.98666ZM81.2358 7.31062C81.2355 7.05462 81.2392 6.82262 81.247 6.61461C81.2548 6.3986 81.2585 6.1546 81.2582 5.8826C81.1062 5.88276 80.8942 5.887 80.6222 5.8953C80.3582 5.90359 80.1502 5.90782 79.9982 5.90798L77.4422 5.9108C77.41 5.74283 77.3859 5.57486 77.3697 5.40688C77.3535 5.2389 77.3453 5.08691 77.3452 4.95091C77.345 4.80691 77.3528 4.6469 77.3686 4.47088C77.3844 4.29486 77.4083 4.12284 77.4401 3.9548L87.3161 3.94392C87.3562 4.07988 87.3884 4.23584 87.4126 4.41181C87.4368 4.57979 87.4489 4.72377 87.4491 4.84377C87.4494 5.18777 87.3577 5.45187 87.1739 5.63608C86.9981 5.81227 86.6662 5.90064 86.1782 5.90117L84.8102 5.90268C84.6662 5.90284 84.4582 5.89907 84.1862 5.89137C83.9222 5.88366 83.7182 5.87989 83.5742 5.88004C83.5745 6.15204 83.5788 6.39604 83.587 6.61203C83.5952 6.82002 83.5995 7.05202 83.5998 7.30802L83.6105 17.028C83.4585 17.0602 83.2705 17.0844 83.0466 17.1006C82.8226 17.1169 82.6186 17.1251 82.4346 17.1253C82.2586 17.1255 82.0586 17.1177 81.8346 17.102C81.6105 17.0862 81.4145 17.0624 81.2465 17.0306L81.2358 7.31062Z" fill="white"/>
</svg>
