<svg width="87" height="18" viewBox="0 0 87 18" fill="none" xmlns="http://www.w3.org/2000/svg">
<path d="M12.2483 8.90953C12.2493 9.84553 12.1903 10.7416 12.0713 11.5977C11.9522 12.4539 11.7131 13.2541 11.3539 13.9985C10.9947 14.7429 10.4555 15.4115 9.73612 16.0043C9.39243 16.2927 8.97669 16.5251 8.48888 16.7017C8.00108 16.8782 7.49722 17.0108 6.97732 17.0993C6.46541 17.1799 6.00145 17.2204 5.58546 17.2209C4.93746 17.2216 4.35345 17.2182 3.83344 17.2108C3.31343 17.2034 2.78142 17.192 2.2374 17.1766C1.70139 17.1612 1.08537 17.1458 0.389352 17.1306L0.245193 16.9868L0.227424 0.858766L0.371266 0.714606C1.06724 0.689839 1.68322 0.673161 2.21921 0.664571C2.76319 0.647972 3.29518 0.639386 3.81518 0.638813C4.33518 0.630239 4.91917 0.625596 5.56717 0.624882C5.98317 0.624424 6.44722 0.667912 6.95932 0.755349C7.4794 0.834776 7.98355 0.96622 8.47175 1.14968C8.95994 1.32514 9.3762 1.55669 9.72052 1.84431C10.4332 2.43552 10.9699 3.10293 11.3307 3.84653C11.6915 4.59014 11.9324 5.38987 12.0534 6.24574C12.1823 7.0936 12.2473 7.98153 12.2483 8.90953ZM9.7523 8.91228C9.7515 8.18428 9.70269 7.44833 9.60587 6.70444C9.50905 5.96054 9.3163 5.27675 9.02761 4.65307C8.73892 4.02939 8.31437 3.52586 7.75395 3.14247C7.20152 2.75908 6.46931 2.56789 5.55731 2.56889C5.03731 2.56947 4.55731 2.57 4.11731 2.57048C3.6773 2.56297 3.1773 2.55552 2.61729 2.54813L2.6313 15.2681C3.1913 15.2675 3.69131 15.271 4.13131 15.2785C4.57131 15.278 5.05131 15.2775 5.57131 15.2769C6.48331 15.2759 7.2151 15.0831 7.76668 14.6985C8.32625 14.3139 8.7497 13.8094 9.03701 13.1851C9.32432 12.5608 9.51557 11.8765 9.61075 11.1324C9.70592 10.3803 9.75311 9.64028 9.7523 8.91228ZM15.6391 4.02179C15.8071 3.9896 16.003 3.96539 16.227 3.94914C16.459 3.93288 16.659 3.92466 16.827 3.92448C17.011 3.92428 17.207 3.93206 17.415 3.94783C17.623 3.9636 17.8191 3.98739 18.0031 4.01918L18.0175 17.0992C17.8336 17.1314 17.6376 17.1556 17.4296 17.1718C17.2216 17.1881 17.0256 17.1963 16.8416 17.1965C16.6736 17.1967 16.4736 17.1889 16.2416 17.1731C16.0176 17.1574 15.8216 17.1336 15.6535 17.1018L15.6391 4.02179ZM30.6841 15.0932C30.669 15.8452 30.5455 16.3694 30.3139 16.6656C30.0822 16.9619 29.6823 17.1103 29.1143 17.111L23.5584 17.1171C23.1504 17.1175 22.8182 16.9939 22.5619 16.7462C22.3137 16.4904 22.1893 16.1346 22.1888 15.6786L22.176 4.06259L22.3078 3.93044L23.2318 3.92942C23.7198 3.92889 24.0599 4.04451 24.2522 4.2763C24.4445 4.50809 24.5409 4.88798 24.5415 5.41598L24.5522 15.196C25.2482 15.1312 25.9121 15.0985 26.5441 15.0978L30.6841 15.0932ZM33.4282 4.00219C33.5961 3.97 33.7921 3.94579 34.0161 3.92954C34.2481 3.91329 34.4481 3.90506 34.6161 3.90488C34.8001 3.90468 34.9961 3.91246 35.2041 3.92823C35.4121 3.944 35.6081 3.96779 35.7922 3.99958L35.8066 17.0796C35.6226 17.1118 35.4266 17.136 35.2186 17.1522C35.0107 17.1685 34.8147 17.1767 34.6307 17.1769C34.4627 17.1771 34.2627 17.1693 34.0306 17.1535C33.8066 17.1378 33.6106 17.114 33.4426 17.0822L33.4282 4.00219ZM47.693 3.98647C47.8609 3.94629 48.0209 3.91811 48.1729 3.90194C48.3329 3.88577 48.4808 3.8776 48.6168 3.87745C48.7848 3.87727 48.9689 3.88907 49.1689 3.91285C49.3769 3.92862 49.5769 3.9724 49.769 4.04419L49.8652 4.17608L45.6194 17.0808C45.3554 17.1211 45.0635 17.1454 44.7435 17.1537C44.4235 17.1701 44.1155 17.1784 43.8195 17.1787C43.4275 17.1792 43.0914 17.1156 42.8113 16.9879C42.5391 16.8602 42.3308 16.5604 42.1863 16.0885L38.2851 4.15284C38.509 4.05659 38.737 3.98434 38.9689 3.93608C39.2088 3.87982 39.4488 3.85156 39.6888 3.85129C40.0168 3.85093 40.2849 3.93063 40.4931 4.09041C40.7012 4.24218 40.8736 4.53399 41.01 4.96584L43.0931 11.3355C43.2536 11.8394 43.4222 12.4152 43.599 13.063C43.7837 13.7108 43.9484 14.3306 44.093 14.9224C44.1331 15.0424 44.1972 15.1023 44.2852 15.1022L47.693 3.98647ZM61.3081 15.0955C61.309 15.8395 61.1935 16.3556 60.9619 16.6439C60.7302 16.9241 60.3423 17.0645 59.7983 17.0651L53.5703 17.072C53.1543 17.0725 52.8222 16.9488 52.5739 16.7011C52.3256 16.4454 52.2012 16.0975 52.2008 15.6575L52.188 4.11352L52.3199 3.98138L60.9119 3.97191C60.9441 4.13987 60.9643 4.30385 60.9724 4.46384C60.9806 4.62383 60.9848 4.77183 60.9849 4.90783C60.9851 5.03583 60.9692 5.19185 60.9374 5.37588C60.9136 5.55991 60.8698 5.74396 60.806 5.92803L55.874 5.93346C55.7141 5.93364 55.5101 5.93386 55.2621 5.93413C55.014 5.92641 54.762 5.92269 54.506 5.92297C54.5062 6.09897 54.5104 6.28696 54.5187 6.48695C54.5269 6.68694 54.5311 6.90694 54.5314 7.14694L54.534 9.47494C54.7819 9.46667 55.0259 9.4624 55.2659 9.46213C55.5139 9.46186 55.7179 9.46163 55.8779 9.46146L59.7299 9.45721C59.7861 9.60915 59.8183 9.77712 59.8265 9.96111C59.8427 10.1371 59.8508 10.2851 59.851 10.4051C59.8511 10.5411 59.8433 10.7011 59.8275 10.8851C59.8197 11.0611 59.7879 11.2252 59.7321 11.3772L55.8801 11.3815C55.7201 11.3816 55.5161 11.3819 55.2681 11.3821C55.028 11.3744 54.784 11.3707 54.536 11.3709L54.5391 14.1189C54.5393 14.3109 54.5355 14.4949 54.5277 14.6709C54.5199 14.847 54.516 15.007 54.5162 15.151C54.7242 15.1347 54.9362 15.1225 55.1522 15.1143C55.3762 15.106 55.6402 15.1017 55.9442 15.1014L61.3081 15.0955ZM74.087 7.7734C74.088 8.6294 73.8128 9.3697 73.2615 9.99431C72.7102 10.6109 72.0546 11.0116 71.2948 11.1965C71.687 11.348 72.0032 11.5597 72.2435 11.8314C72.4838 12.1032 72.6922 12.4349 72.8686 12.8267L73.8069 14.9257C73.9512 15.2376 74.0996 15.5294 74.2519 15.8012C74.4122 16.073 74.5804 16.2929 74.7566 16.4607C74.6048 16.6768 74.381 16.8531 74.0852 16.9894C73.7973 17.1257 73.4974 17.1941 73.1854 17.1944C72.7854 17.1948 72.4773 17.0912 72.2611 16.8834C72.0448 16.6757 71.8485 16.3639 71.672 15.9481L70.4811 13.2494C70.2805 12.7856 70.0282 12.4379 69.7239 12.2062C69.4277 11.9745 68.9715 11.859 68.3555 11.8597L66.7595 11.8615L66.7652 17.0455C66.5813 17.0777 66.3853 17.1019 66.1773 17.1181C65.9693 17.1343 65.7733 17.1426 65.5893 17.1428C65.4213 17.1429 65.2253 17.1352 65.0013 17.1194C64.7853 17.1036 64.5893 17.0799 64.4132 17.0481L64.399 4.08807L64.5308 3.96792C65.3628 3.943 66.1508 3.92214 66.8948 3.90532C67.6387 3.8885 68.3947 3.87967 69.1627 3.87882C70.6507 3.87718 71.8431 4.20387 72.7398 4.85888C73.6365 5.50589 74.0856 6.4774 74.087 7.7734ZM66.7527 5.66947L66.7575 10.0135C67.1815 10.005 67.5975 9.99655 68.0055 9.9881C68.4135 9.97965 68.7534 9.97527 69.0254 9.97497C69.7134 9.97422 70.2453 9.86563 70.6211 9.64922C70.9968 9.4248 71.2565 9.14451 71.4002 8.80836C71.5518 8.47219 71.6274 8.14011 71.6271 7.81211C71.6267 7.46811 71.5503 7.13619 71.398 6.81636C71.2536 6.48852 70.9973 6.2208 70.6291 6.0132C70.2608 5.79761 69.7447 5.69018 69.0807 5.69091C68.7527 5.69127 68.3727 5.69169 67.9407 5.69217C67.5087 5.69264 67.1127 5.68508 66.7527 5.66947ZM83.8666 3.95862C84.0425 3.91042 84.2225 3.87823 84.4065 3.86202C84.5985 3.84581 84.7744 3.83762 84.9344 3.83744C85.3744 3.83696 85.7465 3.88855 86.0506 3.99221L86.1468 4.13611L82.0287 13.1286L82.033 17.0286C81.849 17.0609 81.657 17.0851 81.4571 17.1013C81.2571 17.1175 81.0611 17.1257 80.8691 17.1259C80.7011 17.1261 80.5051 17.1183 80.2811 17.1026C80.057 17.0868 79.861 17.063 79.693 17.0312L79.6886 13.0232L75.5508 4.14778C76.0785 3.8992 76.5824 3.77464 77.0624 3.77412C77.6544 3.77346 78.0827 4.09299 78.3474 4.7327L80.0075 8.41487C80.192 8.86267 80.3605 9.30248 80.5129 9.73432C80.6734 10.1581 80.8058 10.558 80.9103 10.9339L81.0303 10.9337C81.1578 10.5256 81.2933 10.1015 81.4369 9.6613C81.5884 9.22113 81.7679 8.75293 81.9753 8.25671L83.8666 3.95862Z" fill="white"/>
</svg>
