<svg width="110" height="18" viewBox="0 0 110 18" fill="none" xmlns="http://www.w3.org/2000/svg">
<path d="M12.232 8.804C12.232 9.74 12.172 10.636 12.052 11.492C11.932 12.348 11.692 13.148 11.332 13.892C10.972 14.636 10.432 15.304 9.712 15.896C9.368 16.184 8.952 16.416 8.464 16.592C7.976 16.768 7.472 16.9 6.952 16.988C6.44 17.068 5.976 17.108 5.56 17.108C4.912 17.108 4.328 17.104 3.808 17.096C3.288 17.088 2.756 17.076 2.212 17.06C1.676 17.044 1.06 17.028 0.364 17.012L0.22 16.868V0.74L0.364 0.595999C1.06 0.571999 1.676 0.555999 2.212 0.547999C2.756 0.532 3.288 0.524 3.808 0.524C4.328 0.515999 4.912 0.511999 5.56 0.511999C5.976 0.511999 6.44 0.555999 6.952 0.644C7.472 0.724 7.976 0.855999 8.464 1.04C8.952 1.216 9.368 1.448 9.712 1.736C10.424 2.328 10.96 2.996 11.32 3.74C11.68 4.484 11.92 5.284 12.04 6.14C12.168 6.988 12.232 7.876 12.232 8.804ZM9.736 8.804C9.736 8.076 9.688 7.34 9.592 6.596C9.496 5.852 9.304 5.168 9.016 4.544C8.728 3.92 8.304 3.416 7.744 3.032C7.192 2.648 6.46 2.456 5.548 2.456C5.028 2.456 4.548 2.456 4.108 2.456C3.668 2.448 3.168 2.44 2.608 2.432V15.152C3.168 15.152 3.668 15.156 4.108 15.164C4.548 15.164 5.028 15.164 5.548 15.164C6.46 15.164 7.192 14.972 7.744 14.588C8.304 14.204 8.728 13.7 9.016 13.076C9.304 12.452 9.496 11.768 9.592 11.024C9.688 10.272 9.736 9.532 9.736 8.804ZM15.6282 3.92C15.7962 3.888 15.9922 3.864 16.2162 3.848C16.4482 3.832 16.6482 3.824 16.8162 3.824C17.0002 3.824 17.1962 3.832 17.4042 3.848C17.6122 3.864 17.8082 3.888 17.9922 3.92V17C17.8082 17.032 17.6122 17.056 17.4042 17.072C17.1962 17.088 17.0002 17.096 16.8162 17.096C16.6482 17.096 16.4482 17.088 16.2162 17.072C15.9922 17.056 15.7962 17.032 15.6282 17V3.92ZM20.845 15.908C20.853 15.596 20.945 15.264 21.121 14.912C21.305 14.56 21.525 14.3 21.781 14.132C22.325 14.452 22.949 14.748 23.653 15.02C24.357 15.284 25.121 15.412 25.945 15.404C26.633 15.396 27.229 15.232 27.733 14.912C28.237 14.584 28.489 14.144 28.489 13.592C28.489 12.736 27.869 12.104 26.629 11.696L24.325 10.832C23.373 10.512 22.613 10.084 22.045 9.548C21.485 9.004 21.205 8.304 21.205 7.448C21.205 6.384 21.617 5.484 22.441 4.748C23.265 4.012 24.433 3.632 25.945 3.608C26.769 3.6 27.585 3.7 28.393 3.908C29.209 4.108 29.897 4.34 30.457 4.604C30.457 4.948 30.381 5.288 30.229 5.624C30.085 5.952 29.885 6.216 29.629 6.416C29.053 6.152 28.425 5.94 27.745 5.78C27.073 5.62 26.457 5.544 25.897 5.552C25.201 5.56 24.657 5.72 24.265 6.032C23.873 6.344 23.677 6.744 23.677 7.232C23.677 7.632 23.825 7.936 24.121 8.144C24.425 8.352 24.861 8.556 25.429 8.756L27.649 9.608C28.601 9.936 29.397 10.412 30.037 11.036C30.685 11.652 31.009 12.42 31.009 13.34C31.009 14.524 30.549 15.48 29.629 16.208C28.717 16.928 27.489 17.296 25.945 17.312C24.801 17.32 23.793 17.172 22.921 16.868C22.049 16.564 21.357 16.244 20.845 15.908ZM41.6358 8.948C41.6278 8.356 41.5358 7.8 41.3598 7.28C41.1918 6.76 40.8958 6.336 40.4718 6.008C40.0478 5.68 39.4558 5.516 38.6958 5.516C36.4238 5.516 35.2878 7.18 35.2878 10.508C35.2878 12.124 35.6118 13.328 36.2598 14.12C36.9158 14.912 37.7638 15.308 38.8038 15.308C39.4278 15.308 40.0558 15.18 40.6878 14.924C41.3198 14.66 41.9438 14.3 42.5598 13.844C42.8238 13.996 43.0678 14.224 43.2918 14.528C43.5158 14.832 43.6598 15.112 43.7238 15.368C43.1238 15.904 42.3718 16.364 41.4678 16.748C40.5718 17.124 39.5678 17.312 38.4557 17.312C37.4158 17.312 36.5358 17.12 35.8158 16.736C35.1038 16.352 34.5278 15.836 34.0878 15.188C33.6478 14.532 33.3278 13.8 33.1278 12.992C32.9358 12.184 32.8398 11.352 32.8398 10.496C32.8398 8.888 33.1118 7.58 33.6558 6.572C34.2078 5.556 34.9318 4.808 35.8278 4.328C36.7318 3.848 37.7078 3.608 38.7558 3.608C39.9318 3.608 40.8958 3.82 41.6478 4.244C42.4078 4.668 42.9718 5.196 43.3398 5.828C43.7078 6.452 43.8918 7.08 43.8918 7.712C43.8918 8.104 43.7918 8.428 43.5918 8.684C43.3998 8.94 43.0478 9.068 42.5358 9.068C42.3758 9.068 42.2238 9.056 42.0798 9.032C41.9358 9.008 41.7878 8.98 41.6358 8.948ZM45.5429 10.472C45.5429 9.128 45.7709 7.944 46.2269 6.92C46.6909 5.888 47.3709 5.08 48.2669 4.496C49.1709 3.904 50.2789 3.608 51.5909 3.608C52.9189 3.608 54.0309 3.9 54.9269 4.484C55.8309 5.068 56.5109 5.876 56.9669 6.908C57.4309 7.94 57.6629 9.128 57.6629 10.472C57.6629 11.808 57.4309 12.992 56.9669 14.024C56.5029 15.056 55.8189 15.864 54.9149 16.448C54.0109 17.024 52.9029 17.312 51.5909 17.312C50.2709 17.312 49.1629 17.02 48.2669 16.436C47.3709 15.844 46.6909 15.032 46.2269 14C45.7709 12.968 45.5429 11.792 45.5429 10.472ZM47.9909 10.472C47.9909 11.024 48.0429 11.592 48.1469 12.176C48.2509 12.76 48.4309 13.304 48.6869 13.808C48.9429 14.304 49.3069 14.708 49.7789 15.02C50.2509 15.324 50.8549 15.476 51.5909 15.476C52.3349 15.476 52.9429 15.324 53.4149 15.02C53.8869 14.708 54.2509 14.304 54.5069 13.808C54.7629 13.304 54.9389 12.76 55.0349 12.176C55.1389 11.592 55.1909 11.024 55.1909 10.472C55.1909 9.912 55.1389 9.34 55.0349 8.756C54.9389 8.164 54.7629 7.62 54.5069 7.124C54.2509 6.62 53.8869 6.216 53.4149 5.912C52.9429 5.6 52.3349 5.444 51.5909 5.444C50.8549 5.444 50.2509 5.6 49.7789 5.912C49.3069 6.216 48.9429 6.62 48.6869 7.124C48.4309 7.62 48.2509 8.164 48.1469 8.756C48.0429 9.34 47.9909 9.912 47.9909 10.472ZM71.3282 12.368C71.3282 13.968 70.8403 15.192 69.8643 16.04C68.8963 16.888 67.5763 17.312 65.9043 17.312C64.2403 17.312 62.9203 16.888 61.9443 16.04C60.9763 15.192 60.4923 13.968 60.4923 12.368V3.956L60.6123 3.824H61.5123C61.9923 3.824 62.3363 3.948 62.5443 4.196C62.7523 4.436 62.8563 4.82 62.8563 5.348V12.356C62.8563 13.34 63.1123 14.096 63.6243 14.624C64.1363 15.152 64.8963 15.416 65.9043 15.416C66.9283 15.416 67.6923 15.152 68.1963 14.624C68.7003 14.096 68.9523 13.34 68.9523 12.356V3.92C69.1283 3.888 69.3203 3.864 69.5283 3.848C69.7363 3.832 69.9283 3.824 70.1043 3.824C70.2803 3.824 70.4803 3.832 70.7043 3.848C70.9363 3.864 71.1442 3.892 71.3282 3.932V12.368ZM78.7806 9.392C78.5646 9.016 78.3246 8.572 78.0606 8.06C77.7966 7.54 77.5686 7.096 77.3766 6.728L77.2806 6.752C77.3046 7.216 77.3286 7.744 77.3526 8.336C77.3766 8.92 77.3926 9.48 77.4006 10.016C77.4166 10.544 77.4246 10.956 77.4246 11.252V17C77.2246 17.032 77.0286 17.056 76.8366 17.072C76.6526 17.088 76.4806 17.096 76.3206 17.096C76.1606 17.096 75.9806 17.088 75.7806 17.072C75.5806 17.056 75.3846 17.032 75.1926 17V3.956C75.3846 3.916 75.6126 3.884 75.8766 3.86C76.1486 3.836 76.3766 3.824 76.5606 3.824C76.7606 3.824 76.9886 3.832 77.2446 3.848C77.5086 3.856 77.7326 3.88 77.9166 3.92L82.3446 11.552C82.5606 11.92 82.8046 12.384 83.0766 12.944C83.3566 13.504 83.5966 13.968 83.7966 14.336L83.9046 14.312C83.8726 13.896 83.8366 13.396 83.7966 12.812C83.7646 12.22 83.7366 11.644 83.7126 11.084C83.6886 10.524 83.6766 10.072 83.6766 9.728V5.216C83.6766 4.696 83.7726 4.336 83.9646 4.136C84.1566 3.928 84.4926 3.824 84.9726 3.824H85.8126L85.9446 3.956V16.976C85.7446 17.016 85.5126 17.044 85.2486 17.06C84.9926 17.084 84.7686 17.096 84.5766 17.096C84.3846 17.096 84.1486 17.088 83.8686 17.072C83.5966 17.064 83.3726 17.04 83.1966 17L78.7806 9.392ZM92.104 7.28C92.104 7.024 92.108 6.792 92.116 6.584C92.124 6.368 92.128 6.124 92.128 5.852C91.976 5.852 91.764 5.856 91.492 5.864C91.228 5.872 91.02 5.876 90.868 5.876H88.312C88.28 5.708 88.256 5.54 88.24 5.372C88.224 5.204 88.216 5.052 88.216 4.916C88.216 4.772 88.224 4.612 88.24 4.436C88.256 4.26 88.28 4.088 88.312 3.92H98.188C98.228 4.056 98.26 4.212 98.284 4.388C98.308 4.556 98.32 4.7 98.32 4.82C98.32 5.164 98.228 5.428 98.044 5.612C97.868 5.788 97.536 5.876 97.048 5.876H95.68C95.536 5.876 95.328 5.872 95.056 5.864C94.792 5.856 94.588 5.852 94.444 5.852C94.444 6.124 94.448 6.368 94.456 6.584C94.464 6.792 94.468 7.024 94.468 7.28V17C94.316 17.032 94.128 17.056 93.904 17.072C93.68 17.088 93.476 17.096 93.292 17.096C93.116 17.096 92.916 17.088 92.692 17.072C92.468 17.056 92.272 17.032 92.104 17V7.28ZM99.1497 15.908C99.1577 15.596 99.2497 15.264 99.4257 14.912C99.6097 14.56 99.8297 14.3 100.086 14.132C100.63 14.452 101.254 14.748 101.958 15.02C102.662 15.284 103.426 15.412 104.25 15.404C104.938 15.396 105.534 15.232 106.038 14.912C106.542 14.584 106.794 14.144 106.794 13.592C106.794 12.736 106.174 12.104 104.934 11.696L102.63 10.832C101.678 10.512 100.918 10.084 100.35 9.548C99.7897 9.004 99.5097 8.304 99.5097 7.448C99.5097 6.384 99.9217 5.484 100.746 4.748C101.57 4.012 102.738 3.632 104.25 3.608C105.074 3.6 105.89 3.7 106.698 3.908C107.514 4.108 108.202 4.34 108.762 4.604C108.762 4.948 108.686 5.288 108.534 5.624C108.39 5.952 108.19 6.216 107.934 6.416C107.358 6.152 106.73 5.94 106.05 5.78C105.378 5.62 104.762 5.544 104.202 5.552C103.506 5.56 102.962 5.72 102.57 6.032C102.178 6.344 101.982 6.744 101.982 7.232C101.982 7.632 102.13 7.936 102.426 8.144C102.73 8.352 103.166 8.556 103.734 8.756L105.954 9.608C106.906 9.936 107.702 10.412 108.342 11.036C108.99 11.652 109.314 12.42 109.314 13.34C109.314 14.524 108.854 15.48 107.934 16.208C107.022 16.928 105.794 17.296 104.25 17.312C103.106 17.32 102.098 17.172 101.226 16.868C100.354 16.564 99.6617 16.244 99.1497 15.908Z" fill="black"/>
</svg>
