<svg width="197" height="20" viewBox="0 0 197 20" fill="none" xmlns="http://www.w3.org/2000/svg">
<path d="M9.58 14.924C9.58 15.74 9.452 16.296 9.196 16.592C8.948 16.88 8.536 17.024 7.96 17.024H1.6C1.2 17.024 0.868 16.896 0.604 16.64C0.34 16.376 0.208 16 0.208 15.512V0.655999L0.364 0.511999H1.276C1.772 0.511999 2.116 0.635999 2.308 0.883999C2.508 1.132 2.608 1.52 2.608 2.048V15.008C2.984 14.976 3.352 14.956 3.712 14.948C4.072 14.932 4.412 14.924 4.732 14.924H9.58ZM11.9954 3.92C12.1634 3.888 12.3594 3.864 12.5834 3.848C12.8154 3.832 13.0154 3.824 13.1834 3.824C13.3674 3.824 13.5634 3.832 13.7714 3.848C13.9794 3.864 14.1754 3.888 14.3594 3.92V17C14.1754 17.032 13.9794 17.056 13.7714 17.072C13.5634 17.088 13.3674 17.096 13.1834 17.096C13.0154 17.096 12.8154 17.088 12.5834 17.072C12.3594 17.056 12.1634 17.032 11.9954 17V3.92ZM17.4882 10.472C17.4882 9.128 17.7162 7.944 18.1722 6.92C18.6362 5.888 19.3162 5.08 20.2122 4.496C21.1162 3.904 22.2242 3.608 23.5362 3.608C24.8642 3.608 25.9762 3.9 26.8722 4.484C27.7762 5.068 28.4562 5.876 28.9122 6.908C29.3762 7.94 29.6082 9.128 29.6082 10.472C29.6082 11.776 29.3562 12.976 28.8522 14.072C28.3482 15.16 27.6082 15.948 26.6322 16.436L26.8122 16.568C27.5242 17.08 28.1002 17.4 28.5402 17.528C28.9802 17.656 29.3762 17.728 29.7282 17.744C29.7122 18.32 29.5282 18.748 29.1762 19.028C28.8242 19.308 28.4322 19.448 28.0002 19.448C27.7602 19.448 27.5002 19.404 27.2202 19.316C26.9402 19.228 26.6522 19.056 26.3562 18.8L24.2562 17.228C24.0402 17.284 23.8202 17.312 23.5962 17.312C22.2602 17.312 21.1362 17.02 20.2242 16.436C19.3202 15.852 18.6362 15.048 18.1722 14.024C17.7162 12.992 17.4882 11.808 17.4882 10.472ZM19.9362 10.472C19.9362 11.024 19.9882 11.592 20.0922 12.176C20.1962 12.76 20.3762 13.304 20.6322 13.808C20.8882 14.304 21.2522 14.708 21.7242 15.02C22.1962 15.324 22.8002 15.476 23.5362 15.476C24.2802 15.476 24.8882 15.324 25.3602 15.02C25.8322 14.708 26.1962 14.304 26.4522 13.808C26.7082 13.304 26.8842 12.76 26.9802 12.176C27.0842 11.592 27.1362 11.024 27.1362 10.472C27.1362 9.912 27.0842 9.34 26.9802 8.756C26.8842 8.164 26.7082 7.62 26.4522 7.124C26.1962 6.62 25.8322 6.216 25.3602 5.912C24.8882 5.6 24.2802 5.444 23.5362 5.444C22.8002 5.444 22.1962 5.6 21.7242 5.912C21.2522 6.216 20.8882 6.62 20.6322 7.124C20.3762 7.62 20.1962 8.164 20.0922 8.756C19.9882 9.34 19.9362 9.912 19.9362 10.472ZM43.3204 12.368C43.3204 13.968 42.8324 15.192 41.8564 16.04C40.8884 16.888 39.5684 17.312 37.8964 17.312C36.2324 17.312 34.9124 16.888 33.9364 16.04C32.9684 15.192 32.4844 13.968 32.4844 12.368V3.956L32.6044 3.824H33.5044C33.9844 3.824 34.3284 3.948 34.5364 4.196C34.7444 4.436 34.8484 4.82 34.8484 5.348V12.356C34.8484 13.34 35.1044 14.096 35.6164 14.624C36.1284 15.152 36.8884 15.416 37.8964 15.416C38.9204 15.416 39.6844 15.152 40.1884 14.624C40.6924 14.096 40.9444 13.34 40.9444 12.356V3.92C41.1204 3.888 41.3124 3.864 41.5204 3.848C41.7284 3.832 41.9204 3.824 42.0964 3.824C42.2724 3.824 42.4724 3.832 42.6964 3.848C42.9284 3.864 43.1364 3.892 43.3204 3.932V12.368ZM47.2688 3.92C47.4368 3.888 47.6328 3.864 47.8568 3.848C48.0888 3.832 48.2888 3.824 48.4568 3.824C48.6408 3.824 48.8368 3.832 49.0448 3.848C49.2528 3.864 49.4488 3.888 49.6328 3.92V17C49.4488 17.032 49.2528 17.056 49.0448 17.072C48.8368 17.088 48.6408 17.096 48.4568 17.096C48.2888 17.096 48.0888 17.088 47.8568 17.072C47.6328 17.056 47.4368 17.032 47.2688 17V3.92ZM64.6536 10.484C64.6536 12.644 64.1736 14.284 63.2136 15.404C62.2536 16.524 60.6896 17.084 58.5216 17.084C57.9376 17.084 57.4136 17.08 56.9496 17.072C56.4936 17.064 56.0296 17.056 55.5576 17.048C55.0936 17.04 54.5576 17.028 53.9496 17.012L53.8176 16.88V4.04L53.9496 3.92C54.5656 3.904 55.1056 3.892 55.5696 3.884C56.0336 3.868 56.4936 3.856 56.9496 3.848C57.4136 3.84 57.9376 3.836 58.5216 3.836C60.6816 3.836 62.2416 4.412 63.2016 5.564C64.1696 6.716 64.6536 8.356 64.6536 10.484ZM62.2056 10.484C62.2056 9.932 62.1616 9.376 62.0736 8.816C61.9856 8.256 61.8136 7.744 61.5576 7.28C61.3016 6.808 60.9296 6.432 60.4416 6.152C59.9536 5.872 59.3096 5.732 58.5096 5.732C58.0616 5.732 57.6576 5.728 57.2976 5.72C56.9456 5.712 56.5696 5.708 56.1696 5.708V15.236C56.5776 15.236 56.9576 15.232 57.3096 15.224C57.6616 15.216 58.0616 15.212 58.5096 15.212C59.3096 15.212 59.9536 15.072 60.4416 14.792C60.9296 14.504 61.3016 14.128 61.5576 13.664C61.8136 13.2 61.9856 12.692 62.0736 12.14C62.1616 11.58 62.2056 11.028 62.2056 10.484ZM66.4309 15.908C66.4389 15.596 66.5309 15.264 66.7069 14.912C66.8909 14.56 67.1109 14.3 67.3669 14.132C67.9109 14.452 68.5349 14.748 69.2389 15.02C69.9429 15.284 70.7069 15.412 71.5309 15.404C72.2189 15.396 72.8149 15.232 73.3189 14.912C73.8229 14.584 74.0749 14.144 74.0749 13.592C74.0749 12.736 73.4549 12.104 72.2149 11.696L69.9109 10.832C68.9589 10.512 68.1989 10.084 67.6309 9.548C67.0709 9.004 66.7909 8.304 66.7909 7.448C66.7909 6.384 67.2029 5.484 68.0269 4.748C68.8509 4.012 70.0189 3.632 71.5309 3.608C72.3549 3.6 73.1709 3.7 73.9789 3.908C74.7949 4.108 75.4829 4.34 76.0429 4.604C76.0429 4.948 75.9669 5.288 75.8149 5.624C75.6709 5.952 75.4709 6.216 75.2149 6.416C74.6389 6.152 74.0109 5.94 73.3309 5.78C72.6589 5.62 72.0429 5.544 71.4829 5.552C70.7869 5.56 70.2429 5.72 69.8509 6.032C69.4589 6.344 69.2629 6.744 69.2629 7.232C69.2629 7.632 69.4109 7.936 69.7069 8.144C70.0109 8.352 70.4469 8.556 71.0149 8.756L73.2349 9.608C74.1869 9.936 74.9829 10.412 75.6229 11.036C76.2709 11.652 76.5949 12.42 76.5949 13.34C76.5949 14.524 76.1349 15.48 75.2149 16.208C74.3029 16.928 73.0749 17.296 71.5309 17.312C70.3869 17.32 69.3789 17.172 68.5069 16.868C67.6349 16.564 66.9429 16.244 66.4309 15.908ZM87.0723 17C86.8883 17.032 86.6923 17.056 86.4843 17.072C86.2763 17.088 86.0763 17.096 85.8843 17.096C85.7003 17.096 85.5003 17.088 85.2843 17.072C85.0763 17.056 84.8843 17.032 84.7083 17V4.028L84.8403 3.92H93.2643C93.3043 4.056 93.3363 4.212 93.3603 4.388C93.3843 4.556 93.3963 4.7 93.3963 4.82C93.3963 5.164 93.3043 5.432 93.1203 5.624C92.9443 5.816 92.6123 5.912 92.1243 5.912H89.0883C88.7123 5.912 88.3563 5.912 88.0203 5.912C87.6843 5.904 87.3643 5.896 87.0603 5.888C87.0603 6.224 87.0603 6.564 87.0603 6.908C87.0683 7.244 87.0723 7.576 87.0723 7.904V9.56C87.2323 9.56 87.3883 9.56 87.5403 9.56C87.6923 9.552 87.8363 9.548 87.9723 9.548H92.1003C92.1403 9.692 92.1683 9.856 92.1843 10.04C92.2003 10.216 92.2083 10.364 92.2083 10.484C92.2083 10.62 92.2003 10.78 92.1843 10.964C92.1683 11.14 92.1403 11.304 92.1003 11.456H87.9723C87.8363 11.456 87.6923 11.456 87.5403 11.456C87.3883 11.448 87.2323 11.444 87.0723 11.444V17ZM94.6913 10.472C94.6913 9.128 94.9193 7.944 95.3753 6.92C95.8393 5.888 96.5193 5.08 97.4153 4.496C98.3193 3.904 99.4273 3.608 100.739 3.608C102.067 3.608 103.179 3.9 104.075 4.484C104.979 5.068 105.659 5.876 106.115 6.908C106.579 7.94 106.811 9.128 106.811 10.472C106.811 11.808 106.579 12.992 106.115 14.024C105.651 15.056 104.967 15.864 104.063 16.448C103.159 17.024 102.051 17.312 100.739 17.312C99.4193 17.312 98.3113 17.02 97.4153 16.436C96.5193 15.844 95.8393 15.032 95.3753 14C94.9193 12.968 94.6913 11.792 94.6913 10.472ZM97.1393 10.472C97.1393 11.024 97.1913 11.592 97.2953 12.176C97.3993 12.76 97.5793 13.304 97.8353 13.808C98.0913 14.304 98.4553 14.708 98.9273 15.02C99.3993 15.324 100.003 15.476 100.739 15.476C101.483 15.476 102.091 15.324 102.563 15.02C103.035 14.708 103.399 14.304 103.655 13.808C103.911 13.304 104.087 12.76 104.183 12.176C104.287 11.592 104.339 11.024 104.339 10.472C104.339 9.912 104.287 9.34 104.183 8.756C104.087 8.164 103.911 7.62 103.655 7.124C103.399 6.62 103.035 6.216 102.563 5.912C102.091 5.6 101.483 5.444 100.739 5.444C100.003 5.444 99.3993 5.6 98.9273 5.912C98.4553 6.216 98.0913 6.62 97.8353 7.124C97.5793 7.62 97.3993 8.164 97.2953 8.756C97.1913 9.34 97.1393 9.912 97.1393 10.472ZM119.541 7.736C119.541 8.592 119.265 9.332 118.713 9.956C118.161 10.572 117.505 10.972 116.745 11.156C117.137 11.308 117.453 11.52 117.693 11.792C117.933 12.064 118.141 12.396 118.317 12.788L119.253 14.888C119.397 15.2 119.545 15.492 119.697 15.764C119.857 16.036 120.025 16.256 120.201 16.424C120.049 16.64 119.825 16.816 119.529 16.952C119.241 17.088 118.941 17.156 118.629 17.156C118.229 17.156 117.921 17.052 117.705 16.844C117.489 16.636 117.293 16.324 117.117 15.908L115.929 13.208C115.729 12.744 115.477 12.396 115.173 12.164C114.877 11.932 114.421 11.816 113.805 11.816H112.209V17C112.025 17.032 111.829 17.056 111.621 17.072C111.413 17.088 111.217 17.096 111.033 17.096C110.865 17.096 110.669 17.088 110.445 17.072C110.229 17.056 110.033 17.032 109.857 17V4.04L109.989 3.92C110.821 3.896 111.609 3.876 112.353 3.86C113.097 3.844 113.853 3.836 114.621 3.836C116.109 3.836 117.301 4.164 118.197 4.82C119.093 5.468 119.541 6.44 119.541 7.736ZM112.209 5.624V9.968C112.633 9.96 113.049 9.952 113.457 9.944C113.865 9.936 114.205 9.932 114.477 9.932C115.165 9.932 115.697 9.824 116.073 9.608C116.449 9.384 116.709 9.104 116.853 8.768C117.005 8.432 117.081 8.1 117.081 7.772C117.081 7.428 117.005 7.096 116.853 6.776C116.709 6.448 116.453 6.18 116.085 5.972C115.717 5.756 115.201 5.648 114.537 5.648C114.209 5.648 113.829 5.648 113.397 5.648C112.965 5.648 112.569 5.64 112.209 5.624ZM135.901 3.92C136.069 3.88 136.229 3.852 136.381 3.836C136.541 3.82 136.689 3.812 136.825 3.812C136.993 3.812 137.177 3.824 137.377 3.848C137.585 3.864 137.785 3.908 137.977 3.98L138.073 4.112L133.813 17.012C133.549 17.052 133.257 17.076 132.937 17.084C132.617 17.1 132.309 17.108 132.013 17.108C131.621 17.108 131.285 17.044 131.005 16.916C130.733 16.788 130.525 16.488 130.381 16.016L126.493 4.076C126.717 3.98 126.945 3.908 127.177 3.86C127.417 3.804 127.657 3.776 127.897 3.776C128.225 3.776 128.493 3.856 128.701 4.016C128.909 4.168 129.081 4.46 129.217 4.892L131.293 11.264C131.453 11.768 131.621 12.344 131.797 12.992C131.981 13.64 132.145 14.26 132.289 14.852C132.329 14.972 132.393 15.032 132.481 15.032L135.901 3.92ZM142.35 14.024C142.262 14.024 142.062 14.02 141.75 14.012C141.446 14.004 141.202 14 141.018 14L139.938 17.012C139.658 17.084 139.322 17.12 138.93 17.12C138.466 17.12 138.098 17.064 137.826 16.952L137.754 16.832L142.542 3.92C142.734 3.888 142.966 3.864 143.238 3.848C143.51 3.824 143.746 3.812 143.946 3.812C144.13 3.812 144.346 3.824 144.594 3.848C144.85 3.864 145.074 3.888 145.266 3.92L150.03 16.892C149.846 16.98 149.626 17.048 149.37 17.096C149.122 17.144 148.89 17.168 148.674 17.168C148.346 17.168 148.07 17.1 147.846 16.964C147.63 16.828 147.442 16.528 147.282 16.064L146.55 14C146.39 14 146.162 14.004 145.866 14.012C145.578 14.02 145.386 14.024 145.29 14.024H142.35ZM142.758 9.116L141.69 12.092C141.866 12.092 142.074 12.088 142.314 12.08C142.562 12.072 142.726 12.068 142.806 12.068H144.894C144.974 12.068 145.118 12.072 145.326 12.08C145.534 12.088 145.718 12.092 145.878 12.092L145.002 9.62C144.826 9.108 144.626 8.496 144.402 7.784C144.186 7.072 143.998 6.448 143.838 5.912H143.73C143.586 6.424 143.422 6.988 143.238 7.604C143.054 8.212 142.894 8.716 142.758 9.116ZM161.887 8.12C161.887 9.544 161.419 10.612 160.483 11.324C159.555 12.028 158.363 12.38 156.907 12.38H154.783V17C154.607 17.032 154.411 17.056 154.195 17.072C153.987 17.088 153.791 17.096 153.607 17.096C153.439 17.096 153.243 17.088 153.019 17.072C152.795 17.056 152.595 17.032 152.419 17V4.04L152.551 3.92C153.279 3.904 153.999 3.888 154.711 3.872C155.431 3.848 156.163 3.836 156.907 3.836C157.867 3.836 158.719 3.988 159.463 4.292C160.215 4.596 160.807 5.064 161.239 5.696C161.671 6.328 161.887 7.136 161.887 8.12ZM154.783 5.66V10.556C155.159 10.548 155.543 10.544 155.935 10.544C156.327 10.544 156.623 10.544 156.823 10.544C157.535 10.544 158.079 10.416 158.455 10.16C158.831 9.904 159.087 9.588 159.223 9.212C159.359 8.836 159.427 8.468 159.427 8.108C159.427 7.74 159.359 7.372 159.223 7.004C159.087 6.628 158.831 6.316 158.455 6.068C158.079 5.812 157.535 5.684 156.823 5.684C156.519 5.684 156.191 5.684 155.839 5.684C155.495 5.676 155.143 5.668 154.783 5.66ZM164.667 3.92C164.835 3.888 165.031 3.864 165.255 3.848C165.487 3.832 165.687 3.824 165.855 3.824C166.039 3.824 166.235 3.832 166.443 3.848C166.651 3.864 166.847 3.888 167.031 3.92V17C166.847 17.032 166.651 17.056 166.443 17.072C166.235 17.088 166.039 17.096 165.855 17.096C165.687 17.096 165.487 17.088 165.255 17.072C165.031 17.056 164.835 17.032 164.667 17V3.92ZM174.804 9.392C174.588 9.016 174.348 8.572 174.084 8.06C173.82 7.54 173.592 7.096 173.4 6.728L173.304 6.752C173.328 7.216 173.352 7.744 173.376 8.336C173.4 8.92 173.416 9.48 173.424 10.016C173.44 10.544 173.448 10.956 173.448 11.252V17C173.248 17.032 173.052 17.056 172.86 17.072C172.676 17.088 172.504 17.096 172.344 17.096C172.184 17.096 172.004 17.088 171.804 17.072C171.604 17.056 171.408 17.032 171.216 17V3.956C171.408 3.916 171.636 3.884 171.9 3.86C172.172 3.836 172.4 3.824 172.584 3.824C172.784 3.824 173.012 3.832 173.268 3.848C173.532 3.856 173.756 3.88 173.94 3.92L178.368 11.552C178.584 11.92 178.828 12.384 179.1 12.944C179.38 13.504 179.62 13.968 179.82 14.336L179.928 14.312C179.896 13.896 179.86 13.396 179.82 12.812C179.788 12.22 179.76 11.644 179.736 11.084C179.712 10.524 179.7 10.072 179.7 9.728V5.216C179.7 4.696 179.796 4.336 179.988 4.136C180.18 3.928 180.516 3.824 180.996 3.824H181.836L181.968 3.956V16.976C181.768 17.016 181.536 17.044 181.272 17.06C181.016 17.084 180.792 17.096 180.6 17.096C180.408 17.096 180.172 17.088 179.892 17.072C179.62 17.064 179.396 17.04 179.22 17L174.804 9.392ZM191.127 10.016C191.655 10 192.179 9.988 192.699 9.98C193.219 9.972 193.751 9.968 194.295 9.968C195.015 9.968 195.503 10.088 195.759 10.328C196.015 10.56 196.143 10.908 196.143 11.372V16.472C195.495 16.696 194.699 16.892 193.755 17.06C192.811 17.228 191.891 17.312 190.995 17.312C189.883 17.312 188.947 17.128 188.187 16.76C187.427 16.384 186.815 15.88 186.351 15.248C185.895 14.616 185.563 13.896 185.355 13.088C185.155 12.28 185.055 11.436 185.055 10.556C185.055 9.292 185.227 8.216 185.571 7.328C185.915 6.44 186.379 5.724 186.963 5.18C187.555 4.636 188.223 4.24 188.967 3.992C189.719 3.736 190.491 3.608 191.283 3.608C192.147 3.608 193.003 3.724 193.851 3.956C194.707 4.188 195.439 4.504 196.047 4.904C195.991 5.256 195.859 5.6 195.651 5.936C195.443 6.272 195.223 6.528 194.991 6.704C194.463 6.352 193.883 6.08 193.251 5.888C192.619 5.688 191.963 5.588 191.283 5.588C190.571 5.588 189.927 5.752 189.351 6.08C188.783 6.408 188.331 6.936 187.995 7.664C187.667 8.392 187.503 9.36 187.503 10.568C187.503 13.816 188.811 15.44 191.427 15.44C191.907 15.44 192.355 15.408 192.771 15.344C193.187 15.28 193.559 15.204 193.887 15.116V13.148C193.887 12.972 193.891 12.784 193.899 12.584C193.907 12.376 193.919 12.168 193.935 11.96C193.607 11.968 193.283 11.972 192.963 11.972C192.651 11.972 192.355 11.972 192.075 11.972C191.347 11.972 190.983 11.624 190.983 10.928C190.983 10.8 190.995 10.644 191.019 10.46C191.051 10.276 191.087 10.128 191.127 10.016Z" fill="black"/>
</svg>
