<svg width="141" height="18" viewBox="0 0 141 18" fill="none" xmlns="http://www.w3.org/2000/svg">
<path d="M3.892 6.752C3.596 6.16 3.32 5.588 3.064 5.036C2.808 4.484 2.564 3.948 2.332 3.428L2.26 3.44C2.3 4.256 2.34 5.196 2.38 6.26C2.428 7.316 2.452 8.284 2.452 9.164V17C2.244 17.032 2.044 17.056 1.852 17.072C1.668 17.088 1.496 17.096 1.336 17.096C1.184 17.096 1.008 17.088 0.808 17.072C0.608 17.056 0.412 17.032 0.22 17V0.631999C0.412 0.591999 0.648 0.563999 0.928 0.547999C1.216 0.523999 1.452 0.511999 1.636 0.511999C1.844 0.511999 2.08 0.519999 2.344 0.535999C2.608 0.551999 2.856 0.575999 3.088 0.607999L8.32 10.844C8.632 11.468 8.92 12.076 9.184 12.668C9.456 13.252 9.712 13.796 9.952 14.3L10.024 14.288C9.968 13.344 9.92 12.332 9.88 11.252C9.848 10.164 9.832 9.204 9.832 8.372V2.012C9.832 1.484 9.92 1.104 10.096 0.871999C10.28 0.631999 10.62 0.511999 11.116 0.511999H11.908L12.052 0.644V16.976C11.86 17.016 11.628 17.044 11.356 17.06C11.092 17.084 10.84 17.096 10.6 17.096C10.368 17.096 10.128 17.088 9.88 17.072C9.632 17.056 9.392 17.032 9.16 17L3.892 6.752ZM25.4256 15.044C25.4256 15.788 25.3096 16.304 25.0776 16.592C24.8456 16.872 24.4576 17.012 23.9136 17.012H17.6856C17.2696 17.012 16.9376 16.888 16.6896 16.64C16.4416 16.384 16.3176 16.036 16.3176 15.596V4.052L16.4496 3.92H25.0416C25.0736 4.088 25.0936 4.252 25.1016 4.412C25.1096 4.572 25.1136 4.72 25.1136 4.856C25.1136 4.984 25.0976 5.14 25.0656 5.324C25.0416 5.508 24.9976 5.692 24.9336 5.876H20.0016C19.8416 5.876 19.6376 5.876 19.3896 5.876C19.1416 5.868 18.8896 5.864 18.6336 5.864C18.6336 6.04 18.6376 6.228 18.6456 6.428C18.6536 6.628 18.6576 6.848 18.6576 7.088V9.416C18.9056 9.408 19.1496 9.404 19.3896 9.404C19.6376 9.404 19.8416 9.404 20.0016 9.404H23.8536C23.9096 9.556 23.9416 9.724 23.9496 9.908C23.9656 10.084 23.9736 10.232 23.9736 10.352C23.9736 10.488 23.9656 10.648 23.9496 10.832C23.9416 11.008 23.9096 11.172 23.8536 11.324H20.0016C19.8416 11.324 19.6376 11.324 19.3896 11.324C19.1496 11.316 18.9056 11.312 18.6576 11.312V14.06C18.6576 14.252 18.6536 14.436 18.6456 14.612C18.6376 14.788 18.6336 14.948 18.6336 15.092C18.8416 15.076 19.0536 15.064 19.2696 15.056C19.4936 15.048 19.7576 15.044 20.0616 15.044H25.4256ZM27.1846 4.052C27.6086 3.868 28.0646 3.776 28.5526 3.776C28.9286 3.776 29.2006 3.872 29.3686 4.064C29.5366 4.248 29.6686 4.572 29.7646 5.036L31.0606 11.336C31.1246 11.64 31.1966 12.008 31.2766 12.44C31.3566 12.872 31.4366 13.308 31.5166 13.748C31.5966 14.18 31.6646 14.552 31.7206 14.864C31.7366 14.968 31.7566 15.036 31.7806 15.068C31.8046 15.092 31.8446 15.104 31.9006 15.104L34.2406 4.1C34.4566 4.06 34.7046 4.032 34.9846 4.016C35.2646 4 35.5126 3.992 35.7286 3.992C35.9526 3.992 36.2046 4 36.4846 4.016C36.7726 4.032 37.0166 4.06 37.2166 4.1L39.3406 14.864C39.3806 15.024 39.4446 15.104 39.5326 15.104C39.6366 14.512 39.7566 13.852 39.8926 13.124C40.0366 12.396 40.1606 11.796 40.2646 11.324L41.8726 3.932C42.0486 3.892 42.2286 3.868 42.4126 3.86C42.5966 3.844 42.7766 3.836 42.9526 3.836C43.3846 3.836 43.7606 3.888 44.0806 3.992L44.2126 4.124L41.1286 16.988C40.8726 17.036 40.5406 17.072 40.1326 17.096C39.7326 17.12 39.3846 17.132 39.0886 17.132C38.7446 17.132 38.4406 17.064 38.1766 16.928C37.9206 16.792 37.7486 16.492 37.6606 16.028L36.6286 11.06C36.5086 10.42 36.3686 9.656 36.2086 8.768C36.0486 7.88 35.9006 7.056 35.7646 6.296H35.6326C35.4966 7.056 35.3406 7.872 35.1646 8.744C34.9966 9.616 34.8406 10.388 34.6966 11.06L33.3646 17C33.0926 17.04 32.7686 17.068 32.3926 17.084C32.0246 17.108 31.6846 17.12 31.3726 17.12C31.0126 17.12 30.6926 17.056 30.4126 16.928C30.1326 16.792 29.9406 16.484 29.8366 16.004L27.1846 4.052ZM61.5747 8.12C61.5747 9.544 61.1067 10.612 60.1707 11.324C59.2427 12.028 58.0507 12.38 56.5947 12.38H54.4707V17C54.2947 17.032 54.0987 17.056 53.8827 17.072C53.6747 17.088 53.4787 17.096 53.2947 17.096C53.1267 17.096 52.9307 17.088 52.7067 17.072C52.4827 17.056 52.2827 17.032 52.1067 17V4.04L52.2387 3.92C52.9667 3.904 53.6867 3.888 54.3987 3.872C55.1187 3.848 55.8507 3.836 56.5947 3.836C57.5547 3.836 58.4067 3.988 59.1507 4.292C59.9027 4.596 60.4947 5.064 60.9267 5.696C61.3587 6.328 61.5747 7.136 61.5747 8.12ZM54.4707 5.66V10.556C54.8467 10.548 55.2307 10.544 55.6227 10.544C56.0147 10.544 56.3107 10.544 56.5107 10.544C57.2227 10.544 57.7667 10.416 58.1427 10.16C58.5187 9.904 58.7747 9.588 58.9107 9.212C59.0467 8.836 59.1147 8.468 59.1147 8.108C59.1147 7.74 59.0467 7.372 58.9107 7.004C58.7747 6.628 58.5187 6.316 58.1427 6.068C57.7667 5.812 57.2227 5.684 56.5107 5.684C56.2067 5.684 55.8787 5.684 55.5267 5.684C55.1827 5.676 54.8307 5.668 54.4707 5.66ZM73.9548 7.736C73.9548 8.592 73.6788 9.332 73.1268 9.956C72.5748 10.572 71.9188 10.972 71.1588 11.156C71.5508 11.308 71.8668 11.52 72.1068 11.792C72.3468 12.064 72.5548 12.396 72.7308 12.788L73.6668 14.888C73.8108 15.2 73.9588 15.492 74.1108 15.764C74.2708 16.036 74.4388 16.256 74.6147 16.424C74.4628 16.64 74.2388 16.816 73.9428 16.952C73.6548 17.088 73.3548 17.156 73.0428 17.156C72.6428 17.156 72.3348 17.052 72.1188 16.844C71.9028 16.636 71.7068 16.324 71.5308 15.908L70.3428 13.208C70.1428 12.744 69.8908 12.396 69.5868 12.164C69.2908 11.932 68.8348 11.816 68.2188 11.816H66.6228V17C66.4388 17.032 66.2428 17.056 66.0348 17.072C65.8268 17.088 65.6308 17.096 65.4468 17.096C65.2788 17.096 65.0828 17.088 64.8588 17.072C64.6428 17.056 64.4468 17.032 64.2708 17V4.04L64.4028 3.92C65.2348 3.896 66.0228 3.876 66.7668 3.86C67.5108 3.844 68.2668 3.836 69.0348 3.836C70.5228 3.836 71.7148 4.164 72.6108 4.82C73.5068 5.468 73.9548 6.44 73.9548 7.736ZM66.6228 5.624V9.968C67.0468 9.96 67.4628 9.952 67.8708 9.944C68.2788 9.936 68.6188 9.932 68.8908 9.932C69.5788 9.932 70.1108 9.824 70.4868 9.608C70.8628 9.384 71.1228 9.104 71.2668 8.768C71.4188 8.432 71.4948 8.1 71.4948 7.772C71.4948 7.428 71.4188 7.096 71.2668 6.776C71.1228 6.448 70.8668 6.18 70.4988 5.972C70.1308 5.756 69.6148 5.648 68.9508 5.648C68.6228 5.648 68.2428 5.648 67.8108 5.648C67.3788 5.648 66.9828 5.64 66.6228 5.624ZM76.1288 10.472C76.1288 9.128 76.3568 7.944 76.8128 6.92C77.2768 5.888 77.9568 5.08 78.8528 4.496C79.7568 3.904 80.8648 3.608 82.1768 3.608C83.5048 3.608 84.6168 3.9 85.5128 4.484C86.4168 5.068 87.0968 5.876 87.5528 6.908C88.0168 7.94 88.2488 9.128 88.2488 10.472C88.2488 11.808 88.0168 12.992 87.5528 14.024C87.0888 15.056 86.4048 15.864 85.5008 16.448C84.5968 17.024 83.4888 17.312 82.1768 17.312C80.8568 17.312 79.7488 17.02 78.8528 16.436C77.9568 15.844 77.2768 15.032 76.8128 14C76.3568 12.968 76.1288 11.792 76.1288 10.472ZM78.5768 10.472C78.5768 11.024 78.6288 11.592 78.7328 12.176C78.8368 12.76 79.0168 13.304 79.2728 13.808C79.5288 14.304 79.8928 14.708 80.3648 15.02C80.8368 15.324 81.4408 15.476 82.1768 15.476C82.9208 15.476 83.5288 15.324 84.0008 15.02C84.4728 14.708 84.8368 14.304 85.0928 13.808C85.3488 13.304 85.5248 12.76 85.6208 12.176C85.7248 11.592 85.7768 11.024 85.7768 10.472C85.7768 9.912 85.7248 9.34 85.6208 8.756C85.5248 8.164 85.3488 7.62 85.0928 7.124C84.8368 6.62 84.4728 6.216 84.0008 5.912C83.5288 5.6 82.9208 5.444 82.1768 5.444C81.4408 5.444 80.8368 5.6 80.3648 5.912C79.8928 6.216 79.5288 6.62 79.2728 7.124C79.0168 7.62 78.8368 8.164 78.7328 8.756C78.6288 9.34 78.5768 9.912 78.5768 10.472ZM102.13 10.484C102.13 12.644 101.65 14.284 100.69 15.404C99.7302 16.524 98.1662 17.084 95.9982 17.084C95.4142 17.084 94.8902 17.08 94.4262 17.072C93.9702 17.064 93.5062 17.056 93.0342 17.048C92.5702 17.04 92.0342 17.028 91.4262 17.012L91.2942 16.88V4.04L91.4262 3.92C92.0422 3.904 92.5822 3.892 93.0462 3.884C93.5102 3.868 93.9702 3.856 94.4262 3.848C94.8902 3.84 95.4142 3.836 95.9982 3.836C98.1582 3.836 99.7182 4.412 100.678 5.564C101.646 6.716 102.13 8.356 102.13 10.484ZM99.6822 10.484C99.6822 9.932 99.6382 9.376 99.5502 8.816C99.4622 8.256 99.2902 7.744 99.0342 7.28C98.7782 6.808 98.4062 6.432 97.9182 6.152C97.4302 5.872 96.7862 5.732 95.9862 5.732C95.5382 5.732 95.1342 5.728 94.7742 5.72C94.4222 5.712 94.0462 5.708 93.6462 5.708V15.236C94.0542 15.236 94.4342 15.232 94.7862 15.224C95.1382 15.216 95.5382 15.212 95.9862 15.212C96.7862 15.212 97.4302 15.072 97.9182 14.792C98.4062 14.504 98.7782 14.128 99.0342 13.664C99.2902 13.2 99.4622 12.692 99.5502 12.14C99.6382 11.58 99.6822 11.028 99.6822 10.484ZM115.859 12.368C115.859 13.968 115.372 15.192 114.396 16.04C113.428 16.888 112.108 17.312 110.436 17.312C108.772 17.312 107.452 16.888 106.476 16.04C105.508 15.192 105.024 13.968 105.024 12.368V3.956L105.144 3.824H106.044C106.524 3.824 106.868 3.948 107.076 4.196C107.284 4.436 107.388 4.82 107.388 5.348V12.356C107.388 13.34 107.644 14.096 108.156 14.624C108.668 15.152 109.428 15.416 110.436 15.416C111.46 15.416 112.224 15.152 112.728 14.624C113.232 14.096 113.484 13.34 113.484 12.356V3.92C113.66 3.888 113.852 3.864 114.06 3.848C114.268 3.832 114.46 3.824 114.636 3.824C114.812 3.824 115.012 3.832 115.236 3.848C115.468 3.864 115.675 3.892 115.859 3.932V12.368ZM127.347 8.948C127.339 8.356 127.247 7.8 127.071 7.28C126.903 6.76 126.607 6.336 126.183 6.008C125.759 5.68 125.167 5.516 124.407 5.516C122.135 5.516 120.999 7.18 120.999 10.508C120.999 12.124 121.323 13.328 121.971 14.12C122.627 14.912 123.475 15.308 124.515 15.308C125.139 15.308 125.767 15.18 126.399 14.924C127.031 14.66 127.655 14.3 128.271 13.844C128.535 13.996 128.779 14.224 129.003 14.528C129.227 14.832 129.371 15.112 129.435 15.368C128.835 15.904 128.083 16.364 127.179 16.748C126.283 17.124 125.279 17.312 124.167 17.312C123.127 17.312 122.247 17.12 121.527 16.736C120.815 16.352 120.239 15.836 119.799 15.188C119.359 14.532 119.039 13.8 118.839 12.992C118.647 12.184 118.551 11.352 118.551 10.496C118.551 8.888 118.823 7.58 119.367 6.572C119.919 5.556 120.643 4.808 121.539 4.328C122.443 3.848 123.419 3.608 124.467 3.608C125.643 3.608 126.607 3.82 127.359 4.244C128.119 4.668 128.683 5.196 129.051 5.828C129.419 6.452 129.603 7.08 129.603 7.712C129.603 8.104 129.503 8.428 129.303 8.684C129.111 8.94 128.759 9.068 128.247 9.068C128.087 9.068 127.935 9.056 127.791 9.032C127.647 9.008 127.499 8.98 127.347 8.948ZM134.643 7.28C134.643 7.024 134.647 6.792 134.655 6.584C134.663 6.368 134.667 6.124 134.667 5.852C134.515 5.852 134.303 5.856 134.031 5.864C133.767 5.872 133.559 5.876 133.407 5.876H130.851C130.819 5.708 130.795 5.54 130.779 5.372C130.763 5.204 130.755 5.052 130.755 4.916C130.755 4.772 130.763 4.612 130.779 4.436C130.795 4.26 130.819 4.088 130.851 3.92H140.727C140.767 4.056 140.799 4.212 140.823 4.388C140.847 4.556 140.859 4.7 140.859 4.82C140.859 5.164 140.767 5.428 140.583 5.612C140.407 5.788 140.075 5.876 139.587 5.876H138.219C138.075 5.876 137.867 5.872 137.595 5.864C137.331 5.856 137.127 5.852 136.983 5.852C136.983 6.124 136.987 6.368 136.995 6.584C137.003 6.792 137.007 7.024 137.007 7.28V17C136.855 17.032 136.667 17.056 136.443 17.072C136.219 17.088 136.015 17.096 135.831 17.096C135.655 17.096 135.455 17.088 135.231 17.072C135.007 17.056 134.811 17.032 134.643 17V7.28Z" fill="black"/>
</svg>
