<svg width="187" height="18" viewBox="0 0 187 18" fill="none" xmlns="http://www.w3.org/2000/svg">
<path d="M10.697 6.04622C10.6983 7.20622 10.4674 8.18247 10.0042 8.97498C9.5411 9.7595 8.89775 10.3522 8.0742 10.7531C7.25864 11.154 6.31886 11.355 5.25486 11.3562L2.63886 11.3591L2.64534 17.2391C2.46137 17.2713 2.2614 17.2955 2.04542 17.3118C1.82943 17.328 1.62144 17.3362 1.42144 17.3364C1.24544 17.3366 1.04544 17.3289 0.821418 17.3131C0.6054 17.2973 0.413374 17.2736 0.245339 17.2417L0.227424 0.981752L0.371266 0.837592C1.26725 0.820605 2.09923 0.803689 2.86721 0.786843C3.64318 0.761988 4.43517 0.749115 5.24317 0.748225C6.29117 0.74707 7.22739 0.942039 8.05182 1.33313C8.87625 1.72422 9.5209 2.31151 9.98576 3.095C10.4586 3.87848 10.6957 4.86222 10.697 6.04622ZM2.62927 2.65911L2.63677 9.4631C3.09276 9.4546 3.56876 9.45008 4.06476 9.44953C4.56875 9.44097 4.94474 9.43656 5.19274 9.43629C6.00874 9.43539 6.63254 9.2547 7.06415 8.89422C7.49575 8.53375 7.79126 8.09342 7.95069 7.57325C8.11012 7.05307 8.18956 6.54498 8.18901 6.04898C8.18846 5.54498 8.10789 5.03307 7.94732 4.51325C7.78675 3.99342 7.49027 3.55775 7.05788 3.20623C6.62549 2.8547 6.0013 2.67939 5.1853 2.68029C4.8333 2.68068 4.4173 2.68114 3.9373 2.68166C3.4653 2.68218 3.02929 2.67467 2.62927 2.65911ZM14.8957 14.2496C14.8077 14.2497 14.6077 14.2459 14.2957 14.2383C13.9917 14.2306 13.7477 14.2269 13.5637 14.2271L12.487 17.2403C12.2071 17.3126 11.8712 17.3489 11.4792 17.3494C11.0152 17.3499 10.6471 17.2943 10.375 17.1826L10.3028 17.0627L15.0766 4.14539C15.2686 4.11318 15.5005 4.08893 15.7725 4.07263C16.0445 4.04833 16.2805 4.03607 16.4805 4.03585C16.6645 4.03564 16.8805 4.04741 17.1285 4.07113C17.3845 4.08685 17.6086 4.1106 17.8006 4.14239L22.5789 17.1091C22.395 17.1973 22.1751 17.2656 21.9191 17.3139C21.6712 17.3621 21.4392 17.3864 21.2232 17.3866C20.8952 17.387 20.6191 17.3193 20.395 17.1835C20.1788 17.0478 19.9905 16.748 19.83 16.2842L19.0957 14.221C18.9357 14.2211 18.7077 14.2254 18.4117 14.2337C18.1237 14.242 17.9317 14.2463 17.8357 14.2464L14.8957 14.2496ZM15.2983 9.34115L14.2336 12.3183C14.4096 12.3181 14.6176 12.3139 14.8576 12.3056C15.1056 12.2974 15.2696 12.2932 15.3496 12.2931L17.4376 12.2908C17.5176 12.2907 17.6616 12.2946 17.8696 12.3023C18.0776 12.3101 18.2616 12.3139 18.4216 12.3137L17.5429 9.84268C17.3663 9.33087 17.1656 8.71909 16.9409 8.00734C16.7241 7.29558 16.5354 6.67179 16.3748 6.13596L16.2668 6.13608C16.1234 6.64824 15.96 7.21242 15.7767 7.82862C15.5933 8.43683 15.4339 8.941 15.2983 9.34115ZM30.7572 4.14012C30.9332 4.09192 31.1131 4.05973 31.2971 4.04352C31.4891 4.02731 31.6651 4.01912 31.8251 4.01894C32.2651 4.01846 32.6372 4.07005 32.9413 4.17371L33.0374 4.31761L28.9193 13.3101L28.9236 17.2101C28.7397 17.2423 28.5477 17.2666 28.3477 17.2828C28.1477 17.299 27.9517 17.3072 27.7597 17.3074C27.5917 17.3076 27.3957 17.2998 27.1717 17.2841C26.9477 17.2683 26.7517 17.2445 26.5836 17.2127L26.5792 13.2047L22.4414 4.32928C22.9692 4.0807 23.473 3.95614 23.953 3.95561C24.545 3.95496 24.9734 4.27449 25.2381 4.9142L26.8981 8.59637C27.0826 9.04417 27.2511 9.48398 27.4036 9.91582C27.5641 10.3396 27.6965 10.7395 27.8009 11.1154L27.9209 11.1152C28.0485 10.7071 28.184 10.283 28.3275 9.8428C28.479 9.40263 28.6585 8.93443 28.866 8.4382L30.7572 4.14012ZM35.7082 4.12266C35.9321 4.06642 36.1921 4.03013 36.488 4.0138C36.784 3.98948 37.044 3.97719 37.268 3.97694C37.484 3.97671 37.74 3.98842 38.036 4.0121C38.3321 4.02777 38.5801 4.0635 38.7802 4.11928L40.743 10.2971C40.8072 10.497 40.8915 10.781 40.9959 11.1488C41.1083 11.5087 41.2127 11.8726 41.3091 12.2405C41.4135 12.6004 41.4818 12.8843 41.514 13.0923L41.634 13.0921C41.6658 12.8841 41.7255 12.6 41.8131 12.2399C41.9087 11.8718 42.0083 11.5077 42.1119 11.1476C42.2235 10.7875 42.3152 10.5034 42.387 10.2953L44.3002 4.1132C44.5001 4.06498 44.7481 4.0287 45.044 4.00438C45.348 3.98004 45.608 3.96776 45.824 3.96752C46.04 3.96728 46.304 3.97899 46.616 4.00264C46.9361 4.02629 47.1961 4.06201 47.3961 4.10979L48.6585 17.1524C48.2906 17.2488 47.8787 17.2973 47.4227 17.2978C47.0467 17.2982 46.6866 17.2666 46.3426 17.203L45.7832 10.5196C45.7508 10.1516 45.7263 9.72763 45.7098 9.24765C45.6933 8.75966 45.6767 8.27968 45.6602 7.8077C45.6517 7.32771 45.6472 6.91171 45.6468 6.55971L45.5148 6.55986L42.7404 15.2389C42.5724 15.2711 42.3725 15.2953 42.1405 15.3116C41.9165 15.3278 41.7165 15.3361 41.5405 15.3362C41.3565 15.3364 41.1565 15.3287 40.9405 15.3129C40.7245 15.2971 40.5324 15.2734 40.3644 15.2415L37.5829 6.5686L37.4509 6.56874C37.4512 6.92074 37.4437 7.33675 37.4282 7.81677C37.4207 8.28878 37.4053 8.7688 37.3818 9.25682C37.3663 9.73684 37.3428 10.1609 37.3112 10.5289L36.7786 17.2135C36.4427 17.2779 36.0787 17.3103 35.6867 17.3107C35.2067 17.3112 34.8026 17.2637 34.4745 17.168L35.7082 4.12266ZM61.5191 15.2182C61.5199 15.9622 61.4045 16.4784 61.1728 16.7666C60.9411 17.0469 60.5533 17.1873 60.0093 17.1879L53.7813 17.1948C53.3653 17.1952 53.0331 17.0716 52.7848 16.8239C52.5366 16.5681 52.4122 16.2203 52.4117 15.7803L52.399 4.23627L52.5308 4.10413L61.1228 4.09466C61.155 4.26263 61.1752 4.42661 61.1834 4.5866C61.1915 4.74659 61.1957 4.89458 61.1959 5.03058C61.196 5.15858 61.1802 5.3146 61.1484 5.49863C61.1246 5.68266 61.0808 5.86671 61.017 6.05078L56.085 6.05621C55.925 6.05639 55.721 6.05661 55.473 6.05689C55.225 6.04916 54.973 6.04544 54.717 6.04572C54.7172 6.22172 54.7214 6.40972 54.7296 6.60971C54.7378 6.8097 54.7421 7.02969 54.7423 7.26969L54.7449 9.59769C54.9929 9.58942 55.2369 9.58515 55.4769 9.58489C55.7249 9.58461 55.9289 9.58439 56.0889 9.58421L59.9409 9.57997C59.997 9.73191 60.0292 9.89987 60.0374 10.0839C60.0536 10.2598 60.0618 10.4078 60.0619 10.5278C60.0621 10.6638 60.0542 10.8238 60.0384 11.0079C60.0306 11.1839 59.9988 11.3479 59.943 11.5L56.091 11.5042C55.931 11.5044 55.727 11.5046 55.479 11.5049C55.239 11.4971 54.995 11.4934 54.747 11.4937L54.75 14.2417C54.7502 14.4337 54.7464 14.6177 54.7386 14.7937C54.7308 14.9697 54.727 15.1297 54.7271 15.2737C54.9351 15.2575 55.1471 15.2453 55.3631 15.237C55.5871 15.2288 55.8511 15.2245 56.1551 15.2241L61.5191 15.2182ZM68.2038 9.55886C67.9874 9.1831 67.7469 8.73937 67.4823 8.22766C67.2178 7.70795 66.9893 7.2642 66.7969 6.89641L66.7009 6.92052C66.7254 7.38449 66.75 7.91246 66.7746 8.50444C66.7993 9.08841 66.8159 9.64839 66.8245 10.1844C66.8411 10.7124 66.8495 11.1244 66.8498 11.4204L66.8562 17.1684C66.6562 17.2006 66.4602 17.2248 66.2683 17.241C66.0843 17.2572 65.9123 17.2654 65.7523 17.2656C65.5923 17.2657 65.4123 17.2579 65.2123 17.2422C65.0122 17.2264 64.8162 17.2026 64.6242 17.1708L64.6098 4.12682C64.8018 4.08661 65.0297 4.05436 65.2937 4.03007C65.5657 4.00577 65.7937 3.99352 65.9777 3.99331C66.1777 3.99309 66.4057 4.00084 66.6617 4.01656C66.9257 4.02427 67.1497 4.04802 67.3338 4.08782L71.7702 11.7149C71.9866 12.0827 72.2311 12.5464 72.5037 13.1061C72.7843 13.6658 73.0248 14.1296 73.2252 14.4973L73.3332 14.4732C73.3008 14.0573 73.2642 13.5573 73.2236 12.9733C73.1909 12.3814 73.1623 11.8054 73.1377 11.2454C73.113 10.6855 73.1005 10.2335 73.1002 9.88947L73.0952 5.37747C73.0946 4.85747 73.1902 4.49737 73.382 4.29716C73.5738 4.08894 73.9097 3.98457 74.3897 3.98405L75.2297 3.98312L75.3618 4.11497L75.3761 17.135C75.1762 17.1752 74.9442 17.2034 74.6802 17.2197C74.4243 17.244 74.2003 17.2563 74.0083 17.2565C73.8163 17.2567 73.5803 17.2489 73.3003 17.2333C73.0282 17.2256 72.8042 17.2018 72.6282 17.162L68.2038 9.55886ZM81.5248 7.43219C81.5245 7.17619 81.5283 6.94418 81.5361 6.73617C81.5438 6.52017 81.5476 6.27616 81.5473 6.00416C81.3953 6.00433 81.1833 6.00856 80.9113 6.01686C80.6473 6.02515 80.4393 6.02938 80.2873 6.02955L77.7313 6.03237C77.6991 5.8644 77.6749 5.69643 77.6587 5.52844C77.6425 5.36046 77.6344 5.20847 77.6342 5.07247C77.6341 4.92847 77.6419 4.76846 77.6577 4.59245C77.6735 4.41643 77.6973 4.2444 77.7291 4.07637L87.6051 4.06549C87.6453 4.20144 87.6774 4.35741 87.7016 4.53338C87.7258 4.70135 87.738 4.84534 87.7381 4.96534C87.7385 5.30934 87.6468 5.57344 87.463 5.75764C87.2872 5.93384 86.9553 6.0222 86.4673 6.02274L85.0993 6.02425C84.9553 6.02441 84.7473 6.02064 84.4753 6.01294C84.2113 6.00523 84.0073 6.00145 83.8633 6.00161C83.8636 6.27361 83.8678 6.5176 83.8761 6.7336C83.8843 6.94159 83.8885 7.17358 83.8888 7.42958L83.8995 17.1496C83.7476 17.1817 83.5596 17.206 83.3356 17.2222C83.1116 17.2384 82.9076 17.2467 82.7236 17.2469C82.5476 17.2471 82.3476 17.2393 82.1236 17.2235C81.8996 17.2078 81.7036 17.184 81.5355 17.1522L81.5248 7.43219ZM96.0362 4.0562C96.2602 3.99995 96.5201 3.96366 96.8161 3.94734C97.1121 3.92301 97.3721 3.91073 97.5961 3.91048C97.8121 3.91024 98.0681 3.92196 98.3641 3.94563C98.6601 3.96131 98.9082 3.99703 99.1082 4.05281L101.071 10.2307C101.135 10.4306 101.22 10.7145 101.324 11.0824C101.436 11.4423 101.541 11.8061 101.637 12.174C101.742 12.5339 101.81 12.8178 101.842 13.0258L101.962 13.0257C101.994 12.8176 102.054 12.5336 102.141 12.1735C102.237 11.8054 102.336 11.4413 102.44 11.0811C102.552 10.721 102.643 10.4369 102.715 10.2288L104.628 4.04673C104.828 3.99851 105.076 3.96224 105.372 3.93791C105.676 3.91358 105.936 3.90129 106.152 3.90105C106.368 3.90081 106.632 3.91252 106.944 3.93618C107.264 3.95983 107.524 3.99554 107.724 4.04332L108.987 17.0859C108.619 17.1823 108.207 17.2308 107.751 17.2313C107.375 17.2317 107.015 17.2001 106.671 17.1365L106.111 10.4531C106.079 10.0851 106.054 9.66116 106.038 9.18118C106.021 8.6932 106.005 8.21322 105.988 7.74123C105.98 7.26124 105.975 6.84525 105.975 6.49325L105.843 6.49339L103.068 15.1725C102.901 15.2046 102.701 15.2289 102.469 15.2451C102.245 15.2614 102.045 15.2696 101.869 15.2698C101.685 15.27 101.485 15.2622 101.269 15.2464C101.053 15.2307 100.861 15.2069 100.692 15.1751L97.9109 6.50213L97.7789 6.50228C97.7793 6.85428 97.7718 7.27029 97.7563 7.7503C97.7488 8.22231 97.7334 8.70233 97.7099 9.19036C97.6944 9.67037 97.6709 10.0944 97.6393 10.4624L97.1067 17.147C96.7707 17.2114 96.4068 17.2438 96.0148 17.2442C95.5348 17.2448 95.1307 17.1972 94.8026 17.1016L96.0362 4.0562ZM121.847 15.1518C121.848 15.8958 121.733 16.4119 121.501 16.7001C121.269 16.9804 120.881 17.1208 120.337 17.1214L114.109 17.1283C113.693 17.1288 113.361 17.0051 113.113 16.7574C112.865 16.5017 112.74 16.1538 112.74 15.7138L112.727 4.16981L112.859 4.03766L121.451 4.0282C121.483 4.19616 121.503 4.36014 121.511 4.52013C121.52 4.68012 121.524 4.82812 121.524 4.96412C121.524 5.09212 121.508 5.24813 121.476 5.43217C121.453 5.6162 121.409 5.80024 121.345 5.98431L116.413 5.98975C116.253 5.98992 116.049 5.99015 115.801 5.99042C115.553 5.9827 115.301 5.97897 115.045 5.97926C115.045 6.15526 115.049 6.34325 115.058 6.54324C115.066 6.74323 115.07 6.96323 115.07 7.20323L115.073 9.53123C115.321 9.52295 115.565 9.51868 115.805 9.51842C116.053 9.51815 116.257 9.51792 116.417 9.51775L120.269 9.5135C120.325 9.66544 120.357 9.8334 120.366 10.0174C120.382 10.1934 120.39 10.3414 120.39 10.4614C120.39 10.5974 120.382 10.7574 120.367 10.9414C120.359 11.1174 120.327 11.2814 120.271 11.4335L116.419 11.4377C116.259 11.4379 116.055 11.4381 115.807 11.4384C115.567 11.4307 115.323 11.427 115.075 11.4272L115.078 14.1752C115.078 14.3672 115.075 14.5512 115.067 14.7272C115.059 14.9032 115.055 15.0633 115.055 15.2072C115.263 15.191 115.475 15.1788 115.691 15.1705C115.915 15.1623 116.179 15.158 116.483 15.1577L121.847 15.1518ZM126.994 7.38209C126.993 7.12609 126.997 6.89409 127.005 6.68608C127.013 6.47007 127.016 6.22607 127.016 5.95407C126.864 5.95423 126.652 5.95847 126.38 5.96677C126.116 5.97506 125.908 5.97929 125.756 5.97945L123.2 5.98227C123.168 5.81431 123.144 5.64633 123.127 5.47835C123.111 5.31037 123.103 5.15838 123.103 5.02238C123.103 4.87838 123.111 4.71837 123.126 4.54235C123.142 4.36633 123.166 4.19431 123.198 4.02627L133.074 4.01539C133.114 4.15135 133.146 4.30731 133.17 4.48329C133.195 4.65126 133.207 4.79524 133.207 4.91524C133.207 5.25924 133.116 5.52335 132.932 5.70755C132.756 5.88374 132.424 5.97211 131.936 5.97265L130.568 5.97415C130.424 5.97431 130.216 5.97054 129.944 5.96284C129.68 5.95513 129.476 5.95136 129.332 5.95151C129.332 6.22351 129.337 6.46751 129.345 6.6835C129.353 6.89149 129.357 7.12349 129.358 7.37949L129.368 17.0995C129.216 17.1316 129.028 17.1559 128.804 17.1721C128.58 17.1884 128.376 17.1966 128.192 17.1968C128.016 17.197 127.816 17.1892 127.592 17.1734C127.368 17.1577 127.172 17.1339 127.004 17.1021L126.994 7.38209ZM137.746 17.0903C137.57 17.1224 137.374 17.1467 137.158 17.1629C136.95 17.1791 136.754 17.1873 136.57 17.1875C136.402 17.1877 136.206 17.1799 135.982 17.1642C135.758 17.1484 135.558 17.1247 135.382 17.0929L135.368 4.01286C135.543 3.97267 135.743 3.94845 135.967 3.9402C136.191 3.92396 136.387 3.91574 136.555 3.91555C136.739 3.91535 136.935 3.92314 137.143 3.93891C137.359 3.94667 137.555 3.97045 137.732 4.01026L137.736 7.91026C137.736 8.18226 137.732 8.42226 137.725 8.63027C137.717 8.83828 137.713 9.07028 137.713 9.32628C137.825 9.32616 138.029 9.32193 138.325 9.31361C138.629 9.30527 138.833 9.30105 138.937 9.30093L142.429 9.29709C142.525 9.29698 142.721 9.30077 143.017 9.30844C143.321 9.3161 143.529 9.31988 143.641 9.31975C143.641 9.06375 143.637 8.83176 143.629 8.62376C143.62 8.41577 143.616 8.17578 143.616 7.90378L143.612 4.00378C143.779 3.9636 143.967 3.93939 144.175 3.93116C144.383 3.91493 144.579 3.90671 144.763 3.90651C144.939 3.90632 145.139 3.9141 145.363 3.92985C145.587 3.9376 145.791 3.96138 145.976 4.00118L145.99 17.0812C145.806 17.1134 145.606 17.1376 145.39 17.1538C145.182 17.1701 144.982 17.1783 144.79 17.1785C144.606 17.1787 144.41 17.1709 144.202 17.1551C143.994 17.1394 143.802 17.1156 143.626 17.0838L143.621 12.6798C143.621 12.3998 143.625 12.1558 143.632 11.9478C143.64 11.7398 143.644 11.5038 143.644 11.2398C143.532 11.2399 143.324 11.2441 143.02 11.2524C142.724 11.2608 142.528 11.265 142.432 11.2651L138.94 11.2689C138.836 11.269 138.632 11.2653 138.328 11.2576C138.032 11.2499 137.828 11.2462 137.716 11.2463C137.716 11.5103 137.72 11.7463 137.728 11.9543C137.737 12.1623 137.741 12.4063 137.741 12.6863L137.746 17.0903ZM149.037 10.5498C149.036 9.20581 149.263 8.02156 149.718 6.99706C150.18 5.96454 150.86 5.1558 151.755 4.57081C152.658 3.97781 153.766 3.68059 155.078 3.67915C156.406 3.67768 157.518 3.96846 158.415 4.55147C159.32 5.13448 160 5.94173 160.458 6.97322C160.923 8.00471 161.156 9.19245 161.157 10.5365C161.159 11.8725 160.928 13.0567 160.465 14.0892C160.003 15.1217 159.319 15.9305 158.416 16.5155C157.513 17.0925 156.405 17.3817 155.093 17.3831C153.773 17.3846 152.665 17.0938 151.768 16.5108C150.871 15.9198 150.191 15.1085 149.725 14.0771C149.268 13.0456 149.039 11.8698 149.037 10.5498ZM151.485 10.5471C151.486 11.0991 151.539 11.6671 151.643 12.2509C151.748 12.8348 151.929 13.3786 152.185 13.8823C152.442 14.3781 152.806 14.7817 153.279 15.0931C153.751 15.3966 154.355 15.548 155.091 15.5471C155.835 15.5463 156.443 15.3937 156.915 15.0891C157.386 14.7766 157.75 14.3722 158.005 13.8759C158.261 13.3716 158.436 12.8275 158.531 12.2433C158.635 11.6592 158.686 11.0912 158.685 10.5392C158.685 9.97918 158.632 9.40724 158.528 8.82335C158.431 8.23146 158.254 7.68765 157.998 7.19193C157.741 6.68822 157.377 6.28462 156.904 5.98114C156.432 5.66966 155.824 5.51433 155.08 5.51515C154.344 5.51596 153.74 5.67262 153.268 5.98514C152.797 6.28966 152.433 6.69406 152.178 7.19835C151.922 7.69463 151.743 8.23882 151.64 8.83094C151.536 9.41505 151.485 9.98711 151.485 10.5471ZM175.039 10.5332C175.041 12.6932 174.563 14.3337 173.604 15.4547C172.646 16.5758 171.082 17.1375 168.914 17.1399C168.33 17.1406 167.806 17.1371 167.342 17.1296C166.886 17.1221 166.422 17.1147 165.95 17.1072C165.486 17.0997 164.95 17.0883 164.342 17.0729L164.21 16.9411L164.196 4.1011L164.328 3.98096C164.944 3.96428 165.484 3.95168 165.948 3.94317C166.412 3.92666 166.872 3.91415 167.328 3.90565C167.792 3.89714 168.316 3.89256 168.9 3.89192C171.06 3.88954 172.62 4.46382 173.581 5.61476C174.551 6.7657 175.037 8.40516 175.039 10.5332ZM172.591 10.5359C172.59 9.98386 172.546 9.42791 172.457 8.868C172.368 8.3081 172.196 7.79629 171.939 7.33257C171.683 6.86086 171.31 6.48527 170.822 6.2058C170.334 5.92634 169.69 5.78705 168.89 5.78793C168.442 5.78843 168.038 5.78487 167.678 5.77727C167.326 5.76966 166.95 5.76607 166.55 5.76651L166.56 15.2945C166.968 15.2941 167.348 15.2896 167.7 15.2812C168.052 15.2729 168.452 15.2684 168.9 15.2679C169.7 15.267 170.344 15.1263 170.832 14.8458C171.319 14.5573 171.691 14.1809 171.946 13.7166C172.202 13.2523 172.373 12.7441 172.461 12.192C172.548 11.6319 172.591 11.0799 172.591 10.5359ZM176.822 15.9552C176.83 15.6432 176.921 15.3111 177.097 14.9589C177.281 14.6067 177.5 14.3465 177.756 14.1782C178.301 14.4976 178.925 14.7929 179.629 15.0641C180.333 15.3273 181.098 15.4545 181.922 15.4456C182.61 15.4368 183.205 15.2722 183.709 14.9516C184.213 14.6231 184.464 14.1828 184.464 13.6308C184.463 12.7748 183.842 12.1435 182.602 11.7368L180.297 10.8754C179.344 10.5564 178.584 10.1293 178.015 9.59388C177.455 9.0505 177.174 8.35081 177.173 7.49481C177.172 6.43081 177.583 5.53035 178.406 4.79345C179.229 4.05654 180.397 3.67525 181.909 3.64959C182.733 3.64068 183.549 3.73978 184.357 3.94689C185.173 4.14599 185.861 4.37723 186.422 4.64062C186.422 4.98462 186.346 5.3247 186.195 5.66087C186.051 5.98902 185.851 6.25324 185.596 6.45353C185.019 6.19016 184.391 5.97885 183.711 5.8196C183.039 5.66034 182.423 5.58502 181.863 5.59364C181.167 5.60241 180.623 5.763 180.231 6.07544C179.84 6.38787 179.644 6.78808 179.645 7.27608C179.645 7.67608 179.793 7.97992 180.09 8.18759C180.394 8.39526 180.83 8.59878 181.398 8.79815L183.619 9.64771C184.572 9.97466 185.368 10.4498 186.009 11.0731C186.657 11.6884 186.982 12.456 186.983 13.376C186.985 14.56 186.526 15.5165 185.606 16.2455C184.695 16.9665 183.468 17.3359 181.924 17.3536C180.78 17.3628 179.772 17.216 178.899 16.9129C178.027 16.6099 177.335 16.2906 176.822 15.9552Z" fill="white"/>
</svg>
