<svg width="137" height="18" viewBox="0 0 137 18" fill="none" xmlns="http://www.w3.org/2000/svg">
<path d="M10.684 5.816C10.684 6.976 10.452 7.952 9.988 8.744C9.524 9.528 8.88 10.12 8.056 10.52C7.24 10.92 6.3 11.12 5.236 11.12H2.62V17C2.436 17.032 2.236 17.056 2.02 17.072C1.804 17.088 1.596 17.096 1.396 17.096C1.22 17.096 1.02 17.088 0.796 17.072C0.58 17.056 0.388 17.032 0.22 17V0.74L0.364 0.595999C1.26 0.579999 2.092 0.563999 2.86 0.547999C3.636 0.523999 4.428 0.511999 5.236 0.511999C6.284 0.511999 7.22 0.707999 8.044 1.1C8.868 1.492 9.512 2.08 9.976 2.864C10.448 3.648 10.684 4.632 10.684 5.816ZM2.62 2.42V9.224C3.076 9.216 3.552 9.212 4.048 9.212C4.552 9.204 4.928 9.2 5.176 9.2C5.992 9.2 6.616 9.02 7.048 8.66C7.48 8.3 7.776 7.86 7.936 7.34C8.096 6.82 8.176 6.312 8.176 5.816C8.176 5.312 8.096 4.8 7.936 4.28C7.776 3.76 7.48 3.324 7.048 2.972C6.616 2.62 5.992 2.444 5.176 2.444C4.824 2.444 4.408 2.444 3.928 2.444C3.456 2.444 3.02 2.436 2.62 2.42ZM12.7943 8.792C12.7943 7.192 13.0343 5.752 13.5143 4.472C13.9943 3.184 14.7263 2.168 15.7103 1.424C16.6943 0.671999 17.9423 0.295999 19.4543 0.295999C20.9663 0.295999 22.2143 0.671999 23.1983 1.424C24.1823 2.176 24.9103 3.196 25.3823 4.484C25.8623 5.764 26.1023 7.2 26.1023 8.792C26.1023 10.4 25.8623 11.848 25.3823 13.136C24.9023 14.424 24.1703 15.444 23.1863 16.196C22.2023 16.94 20.9583 17.312 19.4543 17.312C17.9343 17.312 16.6823 16.936 15.6983 16.184C14.7143 15.424 13.9823 14.404 13.5023 13.124C13.0303 11.836 12.7943 10.392 12.7943 8.792ZM15.3143 8.792C15.3143 9.528 15.3703 10.284 15.4823 11.06C15.5943 11.828 15.7983 12.54 16.0943 13.196C16.3903 13.844 16.8103 14.372 17.3543 14.78C17.8983 15.18 18.5983 15.38 19.4543 15.38C20.3103 15.38 21.0063 15.18 21.5423 14.78C22.0863 14.372 22.5023 13.844 22.7903 13.196C23.0863 12.54 23.2903 11.828 23.4023 11.06C23.5143 10.284 23.5703 9.528 23.5703 8.792C23.5703 8.056 23.5143 7.304 23.4023 6.536C23.2903 5.768 23.0863 5.06 22.7903 4.412C22.5023 3.756 22.0863 3.228 21.5423 2.828C21.0063 2.428 20.3103 2.228 19.4543 2.228C18.5983 2.228 17.8983 2.428 17.3543 2.828C16.8103 3.228 16.3903 3.756 16.0943 4.412C15.7983 5.06 15.5943 5.768 15.4823 6.536C15.3703 7.304 15.3143 8.056 15.3143 8.792ZM41.5523 8.804C41.5523 9.74 41.4923 10.636 41.3723 11.492C41.2523 12.348 41.0123 13.148 40.6523 13.892C40.2923 14.636 39.7523 15.304 39.0323 15.896C38.6883 16.184 38.2723 16.416 37.7843 16.592C37.2963 16.768 36.7923 16.9 36.2723 16.988C35.7603 17.068 35.2963 17.108 34.8803 17.108C34.2323 17.108 33.6483 17.104 33.1283 17.096C32.6083 17.088 32.0763 17.076 31.5323 17.06C30.9963 17.044 30.3803 17.028 29.6843 17.012L29.5403 16.868V0.74L29.6843 0.595999C30.3803 0.571999 30.9963 0.555999 31.5323 0.547999C32.0763 0.532 32.6083 0.524 33.1283 0.524C33.6483 0.515999 34.2323 0.511999 34.8803 0.511999C35.2963 0.511999 35.7603 0.555999 36.2723 0.644C36.7923 0.724 37.2963 0.855999 37.7843 1.04C38.2723 1.216 38.6883 1.448 39.0323 1.736C39.7443 2.328 40.2803 2.996 40.6403 3.74C41.0003 4.484 41.2403 5.284 41.3603 6.14C41.4883 6.988 41.5523 7.876 41.5523 8.804ZM39.0563 8.804C39.0563 8.076 39.0083 7.34 38.9123 6.596C38.8163 5.852 38.6243 5.168 38.3363 4.544C38.0483 3.92 37.6243 3.416 37.0643 3.032C36.5123 2.648 35.7803 2.456 34.8683 2.456C34.3483 2.456 33.8683 2.456 33.4283 2.456C32.9883 2.448 32.4883 2.44 31.9283 2.432V15.152C32.4883 15.152 32.9883 15.156 33.4283 15.164C33.8683 15.164 34.3483 15.164 34.8683 15.164C35.7803 15.164 36.5123 14.972 37.0643 14.588C37.6243 14.204 38.0483 13.7 38.3363 13.076C38.6243 12.452 38.8163 11.768 38.9123 11.024C39.0083 10.272 39.0563 9.532 39.0563 8.804ZM44.0485 11.624C44.0085 11.472 43.9805 11.308 43.9645 11.132C43.9485 10.948 43.9405 10.78 43.9405 10.628C43.9405 10.46 43.9485 10.288 43.9645 10.112C43.9805 9.928 44.0085 9.752 44.0485 9.584H49.9045C49.9445 9.752 49.9685 9.928 49.9765 10.112C49.9925 10.288 50.0005 10.46 50.0005 10.628C50.0005 10.78 49.9925 10.948 49.9765 11.132C49.9685 11.308 49.9445 11.472 49.9045 11.624H44.0485ZM51.8528 15.908C51.8608 15.596 51.9528 15.264 52.1288 14.912C52.3128 14.56 52.5328 14.3 52.7888 14.132C53.3328 14.452 53.9568 14.748 54.6608 15.02C55.3648 15.284 56.1288 15.412 56.9528 15.404C57.6408 15.396 58.2368 15.232 58.7408 14.912C59.2448 14.584 59.4968 14.144 59.4968 13.592C59.4968 12.736 58.8768 12.104 57.6368 11.696L55.3328 10.832C54.3808 10.512 53.6208 10.084 53.0528 9.548C52.4928 9.004 52.2128 8.304 52.2128 7.448C52.2128 6.384 52.6248 5.484 53.4488 4.748C54.2728 4.012 55.4408 3.632 56.9528 3.608C57.7768 3.6 58.5928 3.7 59.4008 3.908C60.2168 4.108 60.9048 4.34 61.4648 4.604C61.4648 4.948 61.3888 5.288 61.2368 5.624C61.0928 5.952 60.8928 6.216 60.6368 6.416C60.0608 6.152 59.4328 5.94 58.7528 5.78C58.0808 5.62 57.4648 5.544 56.9048 5.552C56.2088 5.56 55.6648 5.72 55.2728 6.032C54.8808 6.344 54.6848 6.744 54.6848 7.232C54.6848 7.632 54.8328 7.936 55.1288 8.144C55.4328 8.352 55.8688 8.556 56.4368 8.756L58.6568 9.608C59.6088 9.936 60.4048 10.412 61.0448 11.036C61.6928 11.652 62.0168 12.42 62.0168 13.34C62.0168 14.524 61.5568 15.48 60.6368 16.208C59.7248 16.928 58.4968 17.296 56.9528 17.312C55.8088 17.32 54.8008 17.172 53.9288 16.868C53.0568 16.564 52.3648 16.244 51.8528 15.908ZM71.2698 3.932C71.4458 3.884 71.6258 3.852 71.8098 3.836C72.0018 3.82 72.1778 3.812 72.3378 3.812C72.7778 3.812 73.1498 3.864 73.4538 3.968L73.5498 4.112L69.4218 13.1V17C69.2378 17.032 69.0458 17.056 68.8458 17.072C68.6458 17.088 68.4498 17.096 68.2578 17.096C68.0898 17.096 67.8938 17.088 67.6698 17.072C67.4458 17.056 67.2498 17.032 67.0818 17V12.992L62.9538 4.112C63.4818 3.864 63.9858 3.74 64.4658 3.74C65.0578 3.74 65.4858 4.06 65.7498 4.7L67.4058 8.384C67.5898 8.832 67.7578 9.272 67.9098 9.704C68.0698 10.128 68.2018 10.528 68.3058 10.904H68.4258C68.5538 10.496 68.6898 10.072 68.8338 9.632C68.9858 9.192 69.1658 8.724 69.3737 8.228L71.2698 3.932ZM74.3763 15.908C74.3843 15.596 74.4763 15.264 74.6523 14.912C74.8363 14.56 75.0563 14.3 75.3123 14.132C75.8563 14.452 76.4803 14.748 77.1842 15.02C77.8883 15.284 78.6523 15.412 79.4763 15.404C80.1643 15.396 80.7603 15.232 81.2643 14.912C81.7683 14.584 82.0203 14.144 82.0203 13.592C82.0203 12.736 81.4003 12.104 80.1603 11.696L77.8563 10.832C76.9043 10.512 76.1443 10.084 75.5763 9.548C75.0163 9.004 74.7363 8.304 74.7363 7.448C74.7363 6.384 75.1483 5.484 75.9723 4.748C76.7963 4.012 77.9643 3.632 79.4763 3.608C80.3003 3.6 81.1163 3.7 81.9243 3.908C82.7403 4.108 83.4283 4.34 83.9883 4.604C83.9883 4.948 83.9123 5.288 83.7603 5.624C83.6163 5.952 83.4163 6.216 83.1603 6.416C82.5843 6.152 81.9563 5.94 81.2763 5.78C80.6043 5.62 79.9883 5.544 79.4283 5.552C78.7323 5.56 78.1883 5.72 77.7963 6.032C77.4043 6.344 77.2083 6.744 77.2083 7.232C77.2083 7.632 77.3563 7.936 77.6523 8.144C77.9563 8.352 78.3923 8.556 78.9603 8.756L81.1803 9.608C82.1323 9.936 82.9283 10.412 83.5683 11.036C84.2163 11.652 84.5403 12.42 84.5403 13.34C84.5403 14.524 84.0803 15.48 83.1603 16.208C82.2483 16.928 81.0203 17.296 79.4763 17.312C78.3323 17.32 77.3243 17.172 76.4523 16.868C75.5803 16.564 74.8883 16.244 74.3763 15.908ZM89.0337 7.28C89.0337 7.024 89.0377 6.792 89.0457 6.584C89.0537 6.368 89.0577 6.124 89.0577 5.852C88.9057 5.852 88.6937 5.856 88.4217 5.864C88.1577 5.872 87.9497 5.876 87.7977 5.876H85.2417C85.2097 5.708 85.1857 5.54 85.1697 5.372C85.1537 5.204 85.1457 5.052 85.1457 4.916C85.1457 4.772 85.1537 4.612 85.1697 4.436C85.1857 4.26 85.2097 4.088 85.2417 3.92H95.1177C95.1577 4.056 95.1897 4.212 95.2137 4.388C95.2377 4.556 95.2497 4.7 95.2497 4.82C95.2497 5.164 95.1577 5.428 94.9737 5.612C94.7977 5.788 94.4657 5.876 93.9777 5.876H92.6097C92.4657 5.876 92.2577 5.872 91.9857 5.864C91.7217 5.856 91.5177 5.852 91.3737 5.852C91.3737 6.124 91.3777 6.368 91.3857 6.584C91.3937 6.792 91.3977 7.024 91.3977 7.28V17C91.2457 17.032 91.0577 17.056 90.8337 17.072C90.6097 17.088 90.4057 17.096 90.2217 17.096C90.0457 17.096 89.8457 17.088 89.6217 17.072C89.3977 17.056 89.2017 17.032 89.0337 17V7.28ZM106.519 15.044C106.519 15.788 106.403 16.304 106.171 16.592C105.939 16.872 105.551 17.012 105.007 17.012H98.7794C98.3634 17.012 98.0314 16.888 97.7834 16.64C97.5354 16.384 97.4114 16.036 97.4114 15.596V4.052L97.5434 3.92H106.135C106.167 4.088 106.187 4.252 106.195 4.412C106.203 4.572 106.207 4.72 106.207 4.856C106.207 4.984 106.191 5.14 106.159 5.324C106.135 5.508 106.091 5.692 106.027 5.876H101.095C100.935 5.876 100.731 5.876 100.483 5.876C100.235 5.868 99.9834 5.864 99.7274 5.864C99.7274 6.04 99.7314 6.228 99.7394 6.428C99.7474 6.628 99.7514 6.848 99.7514 7.088V9.416C99.9994 9.408 100.243 9.404 100.483 9.404C100.731 9.404 100.935 9.404 101.095 9.404H104.947C105.003 9.556 105.035 9.724 105.043 9.908C105.059 10.084 105.067 10.232 105.067 10.352C105.067 10.488 105.059 10.648 105.043 10.832C105.035 11.008 105.003 11.172 104.947 11.324H101.095C100.935 11.324 100.731 11.324 100.483 11.324C100.243 11.316 99.9994 11.312 99.7514 11.312V14.06C99.7514 14.252 99.7474 14.436 99.7394 14.612C99.7314 14.788 99.7274 14.948 99.7274 15.092C99.9354 15.076 100.147 15.064 100.363 15.056C100.587 15.048 100.851 15.044 101.155 15.044H106.519ZM110.486 3.92C110.71 3.864 110.97 3.828 111.266 3.812C111.562 3.788 111.822 3.776 112.046 3.776C112.262 3.776 112.518 3.788 112.814 3.812C113.11 3.828 113.358 3.864 113.558 3.92L115.514 10.1C115.578 10.3 115.662 10.584 115.766 10.952C115.878 11.312 115.982 11.676 116.078 12.044C116.182 12.404 116.25 12.688 116.282 12.896H116.402C116.434 12.688 116.494 12.404 116.582 12.044C116.678 11.676 116.778 11.312 116.882 10.952C116.994 10.592 117.086 10.308 117.158 10.1L119.078 3.92C119.278 3.872 119.526 3.836 119.822 3.812C120.126 3.788 120.386 3.776 120.602 3.776C120.818 3.776 121.082 3.788 121.394 3.812C121.714 3.836 121.974 3.872 122.174 3.92L123.422 16.964C123.054 17.06 122.642 17.108 122.186 17.108C121.81 17.108 121.45 17.076 121.106 17.012L120.554 10.328C120.522 9.96 120.498 9.536 120.482 9.056C120.466 8.568 120.45 8.088 120.434 7.616C120.426 7.136 120.422 6.72 120.422 6.368H120.29L117.506 15.044C117.338 15.076 117.138 15.1 116.906 15.116C116.682 15.132 116.482 15.14 116.306 15.14C116.122 15.14 115.922 15.132 115.706 15.116C115.49 15.1 115.298 15.076 115.13 15.044L112.358 6.368H112.226C112.226 6.72 112.218 7.136 112.202 7.616C112.194 8.088 112.178 8.568 112.154 9.056C112.138 9.536 112.114 9.96 112.082 10.328L111.542 17.012C111.206 17.076 110.842 17.108 110.45 17.108C109.97 17.108 109.566 17.06 109.238 16.964L110.486 3.92ZM125.845 15.908C125.853 15.596 125.945 15.264 126.121 14.912C126.305 14.56 126.525 14.3 126.781 14.132C127.325 14.452 127.949 14.748 128.653 15.02C129.357 15.284 130.121 15.412 130.945 15.404C131.633 15.396 132.229 15.232 132.733 14.912C133.237 14.584 133.489 14.144 133.489 13.592C133.489 12.736 132.869 12.104 131.629 11.696L129.325 10.832C128.373 10.512 127.613 10.084 127.045 9.548C126.485 9.004 126.205 8.304 126.205 7.448C126.205 6.384 126.617 5.484 127.441 4.748C128.265 4.012 129.433 3.632 130.945 3.608C131.769 3.6 132.585 3.7 133.393 3.908C134.209 4.108 134.897 4.34 135.457 4.604C135.457 4.948 135.381 5.288 135.229 5.624C135.085 5.952 134.885 6.216 134.629 6.416C134.053 6.152 133.425 5.94 132.745 5.78C132.073 5.62 131.457 5.544 130.897 5.552C130.201 5.56 129.657 5.72 129.265 6.032C128.873 6.344 128.677 6.744 128.677 7.232C128.677 7.632 128.825 7.936 129.121 8.144C129.425 8.352 129.861 8.556 130.429 8.756L132.649 9.608C133.601 9.936 134.397 10.412 135.037 11.036C135.685 11.652 136.009 12.42 136.009 13.34C136.009 14.524 135.549 15.48 134.629 16.208C133.717 16.928 132.489 17.296 130.945 17.312C129.801 17.32 128.793 17.172 127.921 16.868C127.049 16.564 126.357 16.244 125.845 15.908Z" fill="black"/>
</svg>
