<svg width="155" height="21" viewBox="0 0 155 21" fill="none" xmlns="http://www.w3.org/2000/svg">
<path d="M0.240296 9.03484C0.238516 7.41884 0.46492 5.97059 0.91951 4.69009C1.3741 3.40959 2.08498 2.39681 3.05216 1.65174C4.01934 0.906675 5.26693 0.5333 6.79493 0.531617C8.33893 0.529916 9.59135 0.904536 10.5522 1.65548C11.521 2.39841 12.2341 3.41363 12.6915 4.70112C13.1489 5.98062 13.3785 7.42437 13.3803 9.03237C13.3815 10.1284 13.2507 11.2125 12.9879 12.2848C12.7331 13.3491 12.3381 14.2855 11.803 15.0941C11.2759 15.8947 10.6005 16.4514 9.77682 16.7643L10.3052 17.1358C11.0738 17.6869 11.6702 18.0503 12.0944 18.2258C12.5186 18.4013 12.9347 18.4929 13.3427 18.5004C13.3114 19.0924 13.1279 19.5287 12.7922 19.809C12.4645 20.0974 12.1047 20.2418 11.7127 20.2422C11.3447 20.2426 11.0206 20.187 10.7405 20.0753C10.4604 19.9716 10.1962 19.8239 9.94798 19.6322L7.17367 17.5352C7.09367 17.5433 7.00568 17.5474 6.90968 17.5475C5.33368 17.5492 4.05727 17.1786 3.08045 16.4357C2.10363 15.6928 1.38652 14.6816 0.929108 13.4021C0.47169 12.1146 0.242086 10.6588 0.240296 9.03484ZM2.73629 9.03209C2.73711 9.77609 2.78995 10.532 2.89479 11.2999C3.00764 12.0678 3.20442 12.7756 3.48513 13.4233C3.77384 14.063 4.18641 14.5825 4.72285 14.9819C5.25928 15.3733 5.9555 15.5686 6.8115 15.5676C7.6675 15.5667 8.36328 15.3699 8.89885 14.9773C9.43441 14.5767 9.84184 14.0563 10.1211 13.416C10.4084 12.7676 10.6036 12.0594 10.7068 11.2913C10.8099 10.5232 10.8611 9.76714 10.8603 9.02314C10.8595 8.27914 10.8066 7.5232 10.7018 6.75532C10.5969 5.97943 10.4002 5.26765 10.1114 4.61997C9.83073 3.97227 9.42215 3.45272 8.88572 3.06131C8.34928 2.66191 7.65306 2.46267 6.79706 2.46362C5.94106 2.46456 5.24528 2.66533 4.70972 3.06592C4.17416 3.45851 3.76273 3.97896 3.47544 4.62728C3.19616 5.27559 3.00094 5.9878 2.8898 6.76392C2.78664 7.53204 2.73548 8.28809 2.73629 9.03209ZM27.2782 12.5811C27.2799 14.1811 26.7933 15.4056 25.8182 16.2547C24.8511 17.1037 23.5316 17.5292 21.8596 17.531C20.1956 17.5329 18.8751 17.1103 17.8982 16.2634C16.9293 15.4165 16.4439 14.193 16.4422 12.593L16.4329 4.181L16.5528 4.04887L17.4528 4.04788C17.9327 4.04735 18.2769 4.17097 18.4852 4.41874C18.6934 4.65851 18.7978 5.0424 18.7984 5.5704L18.8061 12.5784C18.8072 13.5624 19.0641 14.3181 19.5766 14.8455C20.0892 15.373 20.8495 15.6361 21.8575 15.635C22.8815 15.6339 23.6452 15.3691 24.1486 14.8405C24.6521 14.312 24.9032 13.5557 24.9021 12.5717L24.8929 4.13568C25.0688 4.10349 25.2608 4.07927 25.4688 4.06305C25.6768 4.04682 25.8687 4.0386 26.0447 4.03841C26.2207 4.03822 26.4208 4.046 26.6448 4.06175C26.8768 4.07749 27.0848 4.10526 27.2689 4.14506L27.2782 12.5811ZM33.6145 14.2301C33.5265 14.2302 33.3265 14.2264 33.0145 14.2187C32.7105 14.2111 32.4665 14.2073 32.2825 14.2075L31.2058 17.2207C30.9259 17.293 30.5899 17.3294 30.1979 17.3298C29.7339 17.3304 29.3658 17.2748 29.0937 17.1631L29.0216 17.0431L33.7953 4.12587C33.9873 4.09366 34.2193 4.0694 34.4913 4.0531C34.7632 4.0288 34.9992 4.01654 35.1992 4.01632C35.3832 4.01612 35.5992 4.02788 35.8473 4.05161C36.1033 4.06733 36.3273 4.09108 36.5193 4.12287L41.2976 17.0896C41.1137 17.1778 40.8938 17.2461 40.6379 17.2943C40.3899 17.3426 40.1579 17.3669 39.9419 17.3671C39.6139 17.3675 39.3379 17.2998 39.1137 17.164C38.8976 17.0283 38.7092 16.7285 38.5487 16.2646L37.8144 14.2015C37.6544 14.2016 37.4265 14.2059 37.1305 14.2142C36.8425 14.2225 36.6505 14.2267 36.5545 14.2268L33.6145 14.2301ZM34.0171 9.32163L32.9524 12.2988C33.1284 12.2986 33.3363 12.2944 33.5763 12.2861C33.8243 12.2778 33.9883 12.2737 34.0683 12.2736L36.1563 12.2713C36.2363 12.2712 36.3803 12.275 36.5883 12.2828C36.7963 12.2906 36.9803 12.2944 37.1403 12.2942L36.2616 9.82316C36.0851 9.31135 35.8844 8.69957 35.6596 7.98782C35.4428 7.27606 35.2541 6.65227 35.0935 6.11644L34.9855 6.11656C34.8421 6.62872 34.6787 7.1929 34.4954 7.8091C34.3121 8.41731 34.1526 8.92148 34.0171 9.32163ZM47.2663 9.58303C47.0499 9.20727 46.8094 8.76354 46.5448 8.25183C46.2803 7.73212 46.0518 7.28837 45.8594 6.92058L45.7634 6.94469C45.7879 7.40866 45.8125 7.93663 45.8371 8.52861C45.8618 9.11258 45.8784 9.67256 45.887 10.2086C45.9036 10.7365 45.912 11.1485 45.9124 11.4445L45.9187 17.1925C45.7187 17.2247 45.5227 17.249 45.3308 17.2652C45.1468 17.2814 44.9748 17.2896 44.8148 17.2897C44.6548 17.2899 44.4748 17.2821 44.2748 17.2663C44.0748 17.2506 43.8787 17.2268 43.6867 17.195L43.6723 4.15099C43.8643 4.11078 44.0922 4.07853 44.3562 4.05424C44.6282 4.02994 44.8562 4.01769 45.0402 4.01748C45.2402 4.01726 45.4682 4.02501 45.7242 4.04073C45.9882 4.04844 46.2122 4.07219 46.3963 4.11199L50.8327 11.7391C51.0491 12.1069 51.2936 12.5706 51.5662 13.1303C51.8468 13.69 52.0873 14.1537 52.2877 14.5215L52.3957 14.4974C52.3633 14.0814 52.3267 13.5815 52.2861 12.9975C52.2534 12.4055 52.2248 11.8296 52.2002 11.2696C52.1755 10.7096 52.1631 10.2576 52.1627 9.91364L52.1577 5.40164C52.1571 4.88164 52.2527 4.52154 52.4445 4.32133C52.6363 4.11311 52.9722 4.00874 53.4522 4.00821L54.2922 4.00729L54.4243 4.13914L54.4387 17.1591C54.2387 17.1994 54.0067 17.2276 53.7427 17.2439C53.4868 17.2682 53.2628 17.2804 53.0708 17.2806C52.8788 17.2809 52.6428 17.2731 52.3628 17.2574C52.0908 17.2497 51.8667 17.226 51.6907 17.1862L47.2663 9.58303ZM60.5873 7.45636C60.5871 7.20036 60.5908 6.96835 60.5986 6.76034C60.6063 6.54433 60.6101 6.30033 60.6098 6.02833C60.4578 6.0285 60.2458 6.03273 59.9738 6.04103C59.7098 6.04932 59.5018 6.05355 59.3498 6.05372L56.7938 6.05653C56.7616 5.88857 56.7374 5.7206 56.7212 5.55261C56.7051 5.38463 56.6969 5.23264 56.6967 5.09664C56.6966 4.95264 56.7044 4.79263 56.7202 4.61661C56.736 4.4406 56.7598 4.26857 56.7916 4.10054L66.6676 4.08966C66.7078 4.22561 66.74 4.38158 66.7642 4.55755C66.7883 4.72552 66.8005 4.86951 66.8006 4.98951C66.801 5.33351 66.7093 5.59761 66.5255 5.78181C66.3497 5.95801 66.0178 6.04637 65.5298 6.04691L64.1618 6.04842C64.0178 6.04858 63.8098 6.0448 63.5378 6.0371C63.2738 6.0294 63.0698 6.02562 62.9258 6.02578C62.9261 6.29778 62.9303 6.54177 62.9386 6.75777C62.9468 6.96576 62.9511 7.19775 62.9513 7.45375L62.9621 17.1737C62.8101 17.2059 62.6221 17.2301 62.3981 17.2464C62.1741 17.2626 61.9702 17.2708 61.7862 17.271C61.6102 17.2712 61.4102 17.2635 61.1861 17.2477C60.9621 17.2319 60.7661 17.2082 60.5981 17.1764L60.5873 7.45636ZM79.5906 12.5234C79.5924 14.1234 79.1057 15.348 78.1307 16.197C77.1636 17.0461 75.8441 17.4716 74.1721 17.4734C72.5081 17.4752 71.1876 17.0527 70.2107 16.2058C69.2417 15.3588 68.7564 14.1354 68.7546 12.5354L68.7454 4.12337L68.8652 3.99123L69.7652 3.99024C70.2452 3.98971 70.5894 4.11333 70.7976 4.36111C71.0059 4.60088 71.1103 4.98476 71.1109 5.51276L71.1186 12.5208C71.1197 13.5048 71.3765 14.2605 71.8891 14.7879C72.4017 15.3153 73.162 15.5785 74.17 15.5774C75.194 15.5763 75.9577 15.3114 76.4611 14.7829C76.9645 14.2543 77.2157 13.498 77.2146 12.514L77.2053 4.07805C77.3813 4.04585 77.5733 4.02164 77.7812 4.00541C77.9892 3.98918 78.1812 3.98097 78.3572 3.98078C78.5332 3.98058 78.7332 3.98836 78.9572 4.00411C79.1893 4.01986 79.3973 4.04763 79.5813 4.08743L79.5906 12.5234ZM84.1222 4.07042C84.3461 4.01418 84.6061 3.97789 84.9021 3.96156C85.198 3.93724 85.458 3.92495 85.682 3.92471C85.898 3.92447 86.154 3.93619 86.4501 3.95986C86.7461 3.97553 86.9941 4.01126 87.1942 4.06704L89.157 10.2449C89.2212 10.4448 89.3055 10.7287 89.4099 11.0966C89.5223 11.4565 89.6267 11.8204 89.7231 12.1883C89.8275 12.5481 89.8958 12.8321 89.9281 13.04L90.0481 13.0399C90.0798 12.8319 90.1395 12.5478 90.2271 12.1877C90.3227 11.8196 90.4223 11.4555 90.5259 11.0954C90.6375 10.7353 90.7292 10.4511 90.801 10.2431L92.7142 4.06096C92.9141 4.01274 93.1621 3.97646 93.4581 3.95214C93.762 3.9278 94.022 3.91552 94.238 3.91528C94.454 3.91504 94.718 3.92675 95.0301 3.95041C95.3501 3.97405 95.6101 4.00977 95.8102 4.05755L97.0726 17.1002C96.7047 17.1966 96.2927 17.245 95.8367 17.2455C95.4607 17.2459 95.1007 17.2143 94.7566 17.1507L94.1972 10.4673C94.1648 10.0994 94.1404 9.67539 94.1238 9.19541C94.1073 8.70743 94.0908 8.22744 94.0743 7.75546C94.0657 7.27547 94.0613 6.85948 94.0609 6.50748L93.9289 6.50762L91.1544 15.1867C90.9865 15.2189 90.7865 15.2431 90.5545 15.2593C90.3305 15.2756 90.1305 15.2838 89.9545 15.284C89.7705 15.2842 89.5705 15.2764 89.3545 15.2607C89.1385 15.2449 88.9465 15.2211 88.7784 15.1893L85.9969 6.51636L85.8649 6.51651C85.8653 6.86851 85.8577 7.28451 85.8423 7.76453C85.8348 8.23654 85.8193 8.71656 85.7958 9.20458C85.7804 9.6846 85.7568 10.1086 85.7253 10.4767L85.1926 17.1613C84.8567 17.2256 84.4927 17.258 84.1007 17.2585C83.6207 17.259 83.2167 17.2114 82.8886 17.1158L84.1222 4.07042ZM113.832 9.0657C113.823 8.4737 113.731 7.91781 113.554 7.398C113.385 6.87819 113.089 6.45451 112.665 6.12698C112.24 5.79945 111.648 5.6361 110.888 5.63694C108.616 5.63944 107.482 7.30469 107.486 10.6327C107.487 12.2487 107.813 13.4523 108.462 14.2436C109.118 15.0349 109.967 15.43 111.007 15.4288C111.631 15.4281 112.259 15.2994 112.89 15.0427C113.522 14.778 114.146 14.4174 114.761 13.9607C115.025 14.1124 115.27 14.3401 115.494 14.6439C115.718 14.9476 115.863 15.2275 115.927 15.4834C115.328 16.0201 114.576 16.4809 113.672 16.8659C112.777 17.2429 111.773 17.432 110.661 17.4332C109.621 17.4343 108.741 17.2433 108.02 16.8601C107.308 16.4769 106.731 15.9615 106.291 15.314C105.85 14.6585 105.529 13.9268 105.328 13.1191C105.135 12.3113 105.038 11.4794 105.038 10.6234C105.036 9.01539 105.306 7.70709 105.849 6.69849C106.4 5.68188 107.123 4.93308 108.019 4.4521C108.922 3.9711 109.898 3.73003 110.946 3.72887C112.122 3.72758 113.086 3.93851 113.839 4.36168C114.599 4.78485 115.164 5.31223 115.532 5.94382C115.901 6.56741 116.086 7.19521 116.086 7.82721C116.087 8.21921 115.987 8.54332 115.788 8.79954C115.596 9.05575 115.244 9.18414 114.732 9.1847C114.572 9.18488 114.42 9.17305 114.276 9.14921C114.132 9.12536 113.984 9.09753 113.832 9.0657ZM127.45 15.1107C127.435 15.8627 127.311 16.3868 127.079 16.6831C126.848 16.9794 126.448 17.1278 125.88 17.1284L120.324 17.1345C119.916 17.135 119.584 17.0114 119.328 16.7636C119.079 16.5079 118.955 16.1521 118.954 15.6961L118.942 4.08006L119.073 3.94792L119.997 3.9469C120.485 3.94636 120.826 4.06199 121.018 4.29377C121.21 4.52556 121.306 4.90546 121.307 5.43346L121.318 15.2135C122.014 15.1487 122.678 15.116 123.31 15.1153L127.45 15.1107ZM140.387 12.4564C140.389 14.0564 139.903 15.281 138.928 16.1301C137.96 16.9791 136.641 17.4046 134.969 17.4064C133.305 17.4082 131.984 16.9857 131.008 16.1388C130.039 15.2918 129.553 14.0684 129.551 12.4684L129.542 4.05638L129.662 3.92425L130.562 3.92326C131.042 3.92273 131.386 4.04635 131.594 4.29412C131.803 4.53389 131.907 4.91778 131.908 5.44578L131.915 12.4538C131.917 13.4378 132.173 14.1935 132.686 14.7209C133.199 15.2484 133.959 15.5115 134.967 15.5104C135.991 15.5093 136.755 15.2444 137.258 14.7159C137.761 14.1873 138.013 13.4311 138.011 12.4471L138.002 4.01106C138.178 3.97887 138.37 3.95466 138.578 3.93843C138.786 3.9222 138.978 3.91399 139.154 3.91379C139.33 3.9136 139.53 3.92138 139.754 3.93713C139.986 3.95288 140.194 3.98065 140.378 4.02044L140.387 12.4564ZM144.375 4.00404C145.087 3.98726 145.826 3.97044 146.594 3.9536C147.37 3.92874 148.118 3.91592 148.838 3.91512C150.43 3.91337 151.619 4.20806 152.403 4.7992C153.196 5.38232 153.593 6.23389 153.594 7.35389C153.595 7.94589 153.415 8.49008 153.056 8.98648C152.705 9.48287 152.225 9.8354 151.617 10.0441C152.345 10.2353 152.974 10.6386 153.503 11.254C154.039 11.8614 154.308 12.5691 154.309 13.3771C154.31 14.5211 153.891 15.4376 153.052 16.1265C152.221 16.8154 150.913 17.1608 149.129 17.1628C148.257 17.1638 147.457 17.1567 146.729 17.1415C146.001 17.1263 145.221 17.1111 144.389 17.096L144.257 16.9762L144.243 4.12419L144.375 4.00404ZM148.804 5.67916C148.516 5.67948 148.156 5.67988 147.724 5.68035C147.292 5.68083 146.908 5.67325 146.572 5.65762L146.576 9.30562L148.76 9.30321C149.432 9.30247 149.944 9.20991 150.296 9.02552C150.648 8.84113 150.888 8.60887 151.015 8.32873C151.151 8.04858 151.219 7.7645 151.218 7.4765C151.218 7.1805 151.154 6.89658 151.025 6.62472C150.897 6.34486 150.657 6.11712 150.305 5.94151C149.96 5.76589 149.46 5.67844 148.804 5.67916ZM146.583 15.4136C147.031 15.4051 147.471 15.4006 147.903 15.4002C148.335 15.3917 148.763 15.3872 149.187 15.3867C149.939 15.3859 150.507 15.2733 150.891 15.0489C151.282 14.8164 151.546 14.5361 151.682 14.208C151.825 13.8798 151.897 13.5638 151.897 13.2598C151.896 12.9478 151.808 12.6239 151.632 12.2881C151.463 11.9522 151.167 11.6686 150.743 11.437C150.318 11.2055 149.73 11.0901 148.978 11.091L146.578 11.0936L146.583 15.4136Z" fill="white"/>
</svg>
