<svg width="159" height="16" viewBox="0 0 159 16" fill="none" xmlns="http://www.w3.org/2000/svg">
<path d="M0.672 13.698C0.7 13.39 0.8015 13.0855 0.9765 12.7845C1.1585 12.4835 1.358 12.2455 1.575 12.0705C2.184 12.4765 2.8595 12.816 3.6015 13.089C4.3435 13.362 5.0715 13.4985 5.7855 13.4985C6.6675 13.4985 7.3535 13.3095 7.8435 12.9315C8.3405 12.5535 8.589 12.06 8.589 11.451C8.589 10.926 8.4105 10.471 8.0535 10.086C7.7035 9.694 7.2205 9.365 6.6045 9.099L4.0635 8.0385C3.1815 7.6675 2.4815 7.1915 1.9635 6.6105C1.4455 6.0295 1.1865 5.298 1.1865 4.416C1.1865 3.667 1.3825 2.988 1.7745 2.379C2.1735 1.77 2.7265 1.287 3.4335 0.93C4.1405 0.565999 4.9595 0.383999 5.8905 0.383999C6.7515 0.383999 7.56 0.495999 8.316 0.72C9.079 0.943999 9.7335 1.189 10.2795 1.455C10.2725 1.756 10.199 2.0605 10.059 2.3685C9.919 2.6695 9.737 2.918 9.513 3.114C8.96 2.841 8.358 2.61 7.707 2.421C7.063 2.225 6.475 2.127 5.943 2.127C5.138 2.127 4.501 2.3265 4.032 2.7255C3.563 3.1175 3.3285 3.604 3.3285 4.185C3.3285 4.675 3.4965 5.0705 3.8325 5.3715C4.1755 5.6725 4.6095 5.935 5.1345 6.159L7.6335 7.1985C8.5155 7.5625 9.2575 8.0665 9.8595 8.7105C10.4685 9.3475 10.773 10.142 10.773 11.094C10.773 11.892 10.5875 12.606 10.2165 13.236C9.8455 13.866 9.282 14.363 8.526 14.727C7.77 15.091 6.818 15.273 5.67 15.273C4.802 15.273 3.9235 15.133 3.0345 14.853C2.1525 14.566 1.365 14.181 0.672 13.698ZM15.2599 6.495C15.2599 6.271 15.2634 6.068 15.2704 5.886C15.2774 5.697 15.2809 5.4835 15.2809 5.2455C15.1479 5.2455 14.9624 5.249 14.7244 5.256C14.4934 5.263 14.3114 5.2665 14.1784 5.2665H11.9419C11.9139 5.1195 11.8929 4.9725 11.8789 4.8255C11.8649 4.6785 11.8579 4.5455 11.8579 4.4265C11.8579 4.3005 11.8649 4.1605 11.8789 4.0065C11.8929 3.8525 11.9139 3.702 11.9419 3.555H20.5834C20.6184 3.674 20.6464 3.8105 20.6674 3.9645C20.6884 4.1115 20.6989 4.2375 20.6989 4.3425C20.6989 4.6435 20.6184 4.8745 20.4574 5.0355C20.3034 5.1895 20.0129 5.2665 19.5859 5.2665H18.3889C18.2629 5.2665 18.0809 5.263 17.8429 5.256C17.6119 5.249 17.4334 5.2455 17.3074 5.2455C17.3074 5.4835 17.3109 5.697 17.3179 5.886C17.3249 6.068 17.3284 6.271 17.3284 6.495V15C17.1954 15.028 17.0309 15.049 16.8349 15.063C16.6389 15.077 16.4604 15.084 16.2994 15.084C16.1454 15.084 15.9704 15.077 15.7744 15.063C15.5784 15.049 15.4069 15.028 15.2599 15V6.495ZM21.3178 9.288C21.3178 8.112 21.5173 7.076 21.9163 6.18C22.3223 5.277 22.9173 4.57 23.7013 4.059C24.4923 3.541 25.4618 3.282 26.6098 3.282C27.7718 3.282 28.7448 3.5375 29.5288 4.0485C30.3198 4.5595 30.9148 5.2665 31.3138 6.1695C31.7198 7.0725 31.9228 8.112 31.9228 9.288C31.9228 10.457 31.7198 11.493 31.3138 12.396C30.9078 13.299 30.3093 14.006 29.5183 14.517C28.7273 15.021 27.7578 15.273 26.6098 15.273C25.4548 15.273 24.4853 15.0175 23.7013 14.5065C22.9173 13.9885 22.3223 13.278 21.9163 12.375C21.5173 11.472 21.3178 10.443 21.3178 9.288ZM23.4598 9.288C23.4598 9.771 23.5053 10.268 23.5963 10.779C23.6873 11.29 23.8448 11.766 24.0688 12.207C24.2928 12.641 24.6113 12.9945 25.0243 13.2675C25.4373 13.5335 25.9658 13.6665 26.6098 13.6665C27.2608 13.6665 27.7928 13.5335 28.2058 13.2675C28.6188 12.9945 28.9373 12.641 29.1613 12.207C29.3853 11.766 29.5393 11.29 29.6233 10.779C29.7143 10.268 29.7598 9.771 29.7598 9.288C29.7598 8.798 29.7143 8.2975 29.6233 7.7865C29.5393 7.2685 29.3853 6.7925 29.1613 6.3585C28.9373 5.9175 28.6188 5.564 28.2058 5.298C27.7928 5.025 27.2608 4.8885 26.6098 4.8885C25.9658 4.8885 25.4373 5.025 25.0243 5.298C24.6113 5.564 24.2928 5.9175 24.0688 6.3585C23.8448 6.7925 23.6873 7.2685 23.5963 7.7865C23.5053 8.2975 23.4598 8.798 23.4598 9.288ZM43.061 6.894C43.061 7.643 42.8195 8.2905 42.3365 8.8365C41.8535 9.3755 41.2795 9.7255 40.6145 9.8865C40.9575 10.0195 41.234 10.205 41.444 10.443C41.654 10.681 41.836 10.9715 41.99 11.3145L42.809 13.152C42.935 13.425 43.0645 13.6805 43.1975 13.9185C43.3375 14.1565 43.4845 14.349 43.6385 14.496C43.5055 14.685 43.3095 14.839 43.0505 14.958C42.7985 15.077 42.536 15.1365 42.263 15.1365C41.913 15.1365 41.6435 15.0455 41.4545 14.8635C41.2655 14.6815 41.094 14.4085 40.94 14.0445L39.9005 11.682C39.7255 11.276 39.505 10.9715 39.239 10.7685C38.98 10.5655 38.581 10.464 38.042 10.464H36.6455V15C36.4845 15.028 36.313 15.049 36.131 15.063C35.949 15.077 35.7775 15.084 35.6165 15.084C35.4695 15.084 35.298 15.077 35.102 15.063C34.913 15.049 34.7415 15.028 34.5875 15V3.66L34.703 3.555C35.431 3.534 36.1205 3.5165 36.7715 3.5025C37.4225 3.4885 38.084 3.4815 38.756 3.4815C40.058 3.4815 41.101 3.7685 41.885 4.3425C42.669 4.9095 43.061 5.76 43.061 6.894ZM36.6455 5.046V8.847C37.0165 8.84 37.3805 8.833 37.7375 8.826C38.0945 8.819 38.392 8.8155 38.63 8.8155C39.232 8.8155 39.6975 8.721 40.0265 8.532C40.3555 8.336 40.583 8.091 40.709 7.797C40.842 7.503 40.9085 7.2125 40.9085 6.9255C40.9085 6.6245 40.842 6.334 40.709 6.054C40.583 5.767 40.359 5.5325 40.037 5.3505C39.715 5.1615 39.2635 5.067 38.6825 5.067C38.3955 5.067 38.063 5.067 37.685 5.067C37.307 5.067 36.9605 5.06 36.6455 5.046ZM53.9798 13.2885C53.9798 13.9395 53.8783 14.391 53.6753 14.643C53.4723 14.888 53.1328 15.0105 52.6568 15.0105H47.2073C46.8433 15.0105 46.5528 14.902 46.3358 14.685C46.1188 14.461 46.0103 14.1565 46.0103 13.7715V3.6705L46.1258 3.555H53.6438C53.6718 3.702 53.6893 3.8455 53.6963 3.9855C53.7033 4.1255 53.7068 4.255 53.7068 4.374C53.7068 4.486 53.6928 4.6225 53.6648 4.7835C53.6438 4.9445 53.6053 5.1055 53.5493 5.2665H49.2338C49.0938 5.2665 48.9153 5.2665 48.6983 5.2665C48.4813 5.2595 48.2608 5.256 48.0368 5.256C48.0368 5.41 48.0403 5.5745 48.0473 5.7495C48.0543 5.9245 48.0578 6.117 48.0578 6.327V8.364C48.2748 8.357 48.4883 8.3535 48.6983 8.3535C48.9153 8.3535 49.0938 8.3535 49.2338 8.3535H52.6043C52.6533 8.4865 52.6813 8.6335 52.6883 8.7945C52.7023 8.9485 52.7093 9.078 52.7093 9.183C52.7093 9.302 52.7023 9.442 52.6883 9.603C52.6813 9.757 52.6533 9.9005 52.6043 10.0335H49.2338C49.0938 10.0335 48.9153 10.0335 48.6983 10.0335C48.4883 10.0265 48.2748 10.023 48.0578 10.023V12.4275C48.0578 12.5955 48.0543 12.7565 48.0473 12.9105C48.0403 13.0645 48.0368 13.2045 48.0368 13.3305C48.2188 13.3165 48.4043 13.306 48.5933 13.299C48.7893 13.292 49.0203 13.2885 49.2863 13.2885H53.9798ZM63.8397 12.396C63.7627 12.396 63.5877 12.3925 63.3147 12.3855C63.0487 12.3785 62.8352 12.375 62.6742 12.375L61.7292 15.0105C61.4842 15.0735 61.1902 15.105 60.8472 15.105C60.4412 15.105 60.1192 15.056 59.8812 14.958L59.8182 14.853L64.0077 3.555C64.1757 3.527 64.3787 3.506 64.6167 3.492C64.8547 3.471 65.0612 3.4605 65.2362 3.4605C65.3972 3.4605 65.5862 3.471 65.8032 3.492C66.0272 3.506 66.2232 3.527 66.3912 3.555L70.5597 14.9055C70.3987 14.9825 70.2062 15.042 69.9822 15.084C69.7652 15.126 69.5622 15.147 69.3732 15.147C69.0862 15.147 68.8447 15.0875 68.6487 14.9685C68.4597 14.8495 68.2952 14.587 68.1552 14.181L67.5147 12.375C67.3747 12.375 67.1752 12.3785 66.9162 12.3855C66.6642 12.3925 66.4962 12.396 66.4122 12.396H63.8397ZM64.1967 8.1015L63.2622 10.7055C63.4162 10.7055 63.5982 10.702 63.8082 10.695C64.0252 10.688 64.1687 10.6845 64.2387 10.6845H66.0657C66.1357 10.6845 66.2617 10.688 66.4437 10.695C66.6257 10.702 66.7867 10.7055 66.9267 10.7055L66.1602 8.5425C66.0062 8.0945 65.8312 7.559 65.6352 6.936C65.4462 6.313 65.2817 5.767 65.1417 5.298H65.0472C64.9212 5.746 64.7777 6.2395 64.6167 6.7785C64.4557 7.3105 64.3157 7.7515 64.1967 8.1015ZM82.1315 9.2985C82.1315 11.1885 81.7115 12.6235 80.8715 13.6035C80.0315 14.5835 78.663 15.0735 76.766 15.0735C76.255 15.0735 75.7965 15.07 75.3905 15.063C74.9915 15.056 74.5855 15.049 74.1725 15.042C73.7665 15.035 73.2975 15.0245 72.7655 15.0105L72.65 14.895V3.66L72.7655 3.555C73.3045 3.541 73.777 3.5305 74.183 3.5235C74.589 3.5095 74.9915 3.499 75.3905 3.492C75.7965 3.485 76.255 3.4815 76.766 3.4815C78.656 3.4815 80.021 3.9855 80.861 4.9935C81.708 6.0015 82.1315 7.4365 82.1315 9.2985ZM79.9895 9.2985C79.9895 8.8155 79.951 8.329 79.874 7.839C79.797 7.349 79.6465 6.901 79.4225 6.495C79.1985 6.082 78.873 5.753 78.446 5.508C78.019 5.263 77.4555 5.1405 76.7555 5.1405C76.3635 5.1405 76.01 5.137 75.695 5.13C75.387 5.123 75.058 5.1195 74.708 5.1195V13.4565C75.065 13.4565 75.3975 13.453 75.7055 13.446C76.0135 13.439 76.3635 13.4355 76.7555 13.4355C77.4555 13.4355 78.019 13.313 78.446 13.068C78.873 12.816 79.1985 12.487 79.4225 12.081C79.6465 11.675 79.797 11.2305 79.874 10.7475C79.951 10.2575 79.9895 9.7745 79.9895 9.2985ZM94.3336 9.2985C94.3336 11.1885 93.9136 12.6235 93.0736 13.6035C92.2336 14.5835 90.8651 15.0735 88.9681 15.0735C88.4571 15.0735 87.9986 15.07 87.5926 15.063C87.1936 15.056 86.7876 15.049 86.3746 15.042C85.9686 15.035 85.4996 15.0245 84.9676 15.0105L84.8521 14.895V3.66L84.9676 3.555C85.5066 3.541 85.9791 3.5305 86.3851 3.5235C86.7911 3.5095 87.1936 3.499 87.5926 3.492C87.9986 3.485 88.4571 3.4815 88.9681 3.4815C90.8581 3.4815 92.2231 3.9855 93.0631 4.9935C93.9101 6.0015 94.3336 7.4365 94.3336 9.2985ZM92.1916 9.2985C92.1916 8.8155 92.1531 8.329 92.0761 7.839C91.9991 7.349 91.8486 6.901 91.6246 6.495C91.4006 6.082 91.0751 5.753 90.6481 5.508C90.2211 5.263 89.6576 5.1405 88.9576 5.1405C88.5656 5.1405 88.2121 5.137 87.8971 5.13C87.5891 5.123 87.2601 5.1195 86.9101 5.1195V13.4565C87.2671 13.4565 87.5996 13.453 87.9076 13.446C88.2156 13.439 88.5656 13.4355 88.9576 13.4355C89.6576 13.4355 90.2211 13.313 90.6481 13.068C91.0751 12.816 91.4006 12.487 91.6246 12.081C91.8486 11.675 91.9991 11.2305 92.0761 10.7475C92.1531 10.2575 92.1916 9.7745 92.1916 9.2985ZM105.528 6.894C105.528 7.643 105.286 8.2905 104.803 8.8365C104.32 9.3755 103.746 9.7255 103.081 9.8865C103.424 10.0195 103.701 10.205 103.911 10.443C104.121 10.681 104.303 10.9715 104.457 11.3145L105.276 13.152C105.402 13.425 105.531 13.6805 105.664 13.9185C105.804 14.1565 105.951 14.349 106.105 14.496C105.972 14.685 105.776 14.839 105.517 14.958C105.265 15.077 105.003 15.1365 104.73 15.1365C104.38 15.1365 104.11 15.0455 103.921 14.8635C103.732 14.6815 103.561 14.4085 103.407 14.0445L102.367 11.682C102.192 11.276 101.972 10.9715 101.706 10.7685C101.447 10.5655 101.048 10.464 100.509 10.464H99.1123V15C98.9513 15.028 98.7798 15.049 98.5978 15.063C98.4158 15.077 98.2443 15.084 98.0833 15.084C97.9363 15.084 97.7648 15.077 97.5688 15.063C97.3798 15.049 97.2083 15.028 97.0543 15V3.66L97.1698 3.555C97.8978 3.534 98.5873 3.5165 99.2383 3.5025C99.8893 3.4885 100.551 3.4815 101.223 3.4815C102.525 3.4815 103.568 3.7685 104.352 4.3425C105.136 4.9095 105.528 5.76 105.528 6.894ZM99.1123 5.046V8.847C99.4833 8.84 99.8473 8.833 100.204 8.826C100.561 8.819 100.859 8.8155 101.097 8.8155C101.699 8.8155 102.164 8.721 102.493 8.532C102.822 8.336 103.05 8.091 103.176 7.797C103.309 7.503 103.375 7.2125 103.375 6.9255C103.375 6.6245 103.309 6.334 103.176 6.054C103.05 5.767 102.826 5.5325 102.504 5.3505C102.182 5.1615 101.73 5.067 101.149 5.067C100.862 5.067 100.53 5.067 100.152 5.067C99.7738 5.067 99.4273 5.06 99.1123 5.046ZM116.447 13.2885C116.447 13.9395 116.345 14.391 116.142 14.643C115.939 14.888 115.6 15.0105 115.124 15.0105H109.674C109.31 15.0105 109.02 14.902 108.803 14.685C108.586 14.461 108.477 14.1565 108.477 13.7715V3.6705L108.593 3.555H116.111C116.139 3.702 116.156 3.8455 116.163 3.9855C116.17 4.1255 116.174 4.255 116.174 4.374C116.174 4.486 116.16 4.6225 116.132 4.7835C116.111 4.9445 116.072 5.1055 116.016 5.2665H111.701C111.561 5.2665 111.382 5.2665 111.165 5.2665C110.948 5.2595 110.728 5.256 110.504 5.256C110.504 5.41 110.507 5.5745 110.514 5.7495C110.521 5.9245 110.525 6.117 110.525 6.327V8.364C110.742 8.357 110.955 8.3535 111.165 8.3535C111.382 8.3535 111.561 8.3535 111.701 8.3535H115.071C115.12 8.4865 115.148 8.6335 115.155 8.7945C115.169 8.9485 115.176 9.078 115.176 9.183C115.176 9.302 115.169 9.442 115.155 9.603C115.148 9.757 115.12 9.9005 115.071 10.0335H111.701C111.561 10.0335 111.382 10.0335 111.165 10.0335C110.955 10.0265 110.742 10.023 110.525 10.023V12.4275C110.525 12.5955 110.521 12.7565 110.514 12.9105C110.507 13.0645 110.504 13.2045 110.504 13.3305C110.686 13.3165 110.871 13.306 111.06 13.299C111.256 13.292 111.487 13.2885 111.753 13.2885H116.447ZM117.996 14.0445C118.003 13.7715 118.084 13.481 118.238 13.173C118.399 12.865 118.591 12.6375 118.815 12.4905C119.291 12.7705 119.837 13.0295 120.453 13.2675C121.069 13.4985 121.738 13.6105 122.459 13.6035C123.061 13.5965 123.582 13.453 124.023 13.173C124.464 12.886 124.685 12.501 124.685 12.018C124.685 11.269 124.142 10.716 123.057 10.359L121.041 9.603C120.208 9.323 119.543 8.9485 119.046 8.4795C118.556 8.0035 118.311 7.391 118.311 6.642C118.311 5.711 118.672 4.9235 119.393 4.2795C120.114 3.6355 121.136 3.303 122.459 3.282C123.18 3.275 123.894 3.3625 124.601 3.5445C125.315 3.7195 125.917 3.9225 126.407 4.1535C126.407 4.4545 126.34 4.752 126.207 5.046C126.081 5.333 125.906 5.564 125.682 5.739C125.178 5.508 124.629 5.3225 124.034 5.1825C123.446 5.0425 122.907 4.976 122.417 4.983C121.808 4.99 121.332 5.13 120.989 5.403C120.646 5.676 120.474 6.026 120.474 6.453C120.474 6.803 120.604 7.069 120.863 7.251C121.129 7.433 121.51 7.6115 122.007 7.7865L123.95 8.532C124.783 8.819 125.479 9.2355 126.039 9.7815C126.606 10.3205 126.89 10.9925 126.89 11.7975C126.89 12.8335 126.487 13.67 125.682 14.307C124.884 14.937 123.81 15.259 122.459 15.273C121.458 15.28 120.576 15.1505 119.813 14.8845C119.05 14.6185 118.444 14.3385 117.996 14.0445ZM128.435 14.0445C128.442 13.7715 128.522 13.481 128.676 13.173C128.837 12.865 129.03 12.6375 129.254 12.4905C129.73 12.7705 130.276 13.0295 130.892 13.2675C131.508 13.4985 132.176 13.6105 132.897 13.6035C133.499 13.5965 134.021 13.453 134.462 13.173C134.903 12.886 135.123 12.501 135.123 12.018C135.123 11.269 134.581 10.716 133.496 10.359L131.48 9.603C130.647 9.323 129.982 8.9485 129.485 8.4795C128.995 8.0035 128.75 7.391 128.75 6.642C128.75 5.711 129.11 4.9235 129.831 4.2795C130.552 3.6355 131.574 3.303 132.897 3.282C133.618 3.275 134.332 3.3625 135.039 3.5445C135.753 3.7195 136.355 3.9225 136.845 4.1535C136.845 4.4545 136.779 4.752 136.646 5.046C136.52 5.333 136.345 5.564 136.121 5.739C135.617 5.508 135.067 5.3225 134.472 5.1825C133.884 5.0425 133.345 4.976 132.855 4.983C132.246 4.99 131.77 5.13 131.427 5.403C131.084 5.676 130.913 6.026 130.913 6.453C130.913 6.803 131.042 7.069 131.301 7.251C131.567 7.433 131.949 7.6115 132.446 7.7865L134.388 8.532C135.221 8.819 135.918 9.2355 136.478 9.7815C137.045 10.3205 137.328 10.9925 137.328 11.7975C137.328 12.8335 136.926 13.67 136.121 14.307C135.323 14.937 134.248 15.259 132.897 15.273C131.896 15.28 131.014 15.1505 130.251 14.8845C129.488 14.6185 128.883 14.3385 128.435 14.0445ZM147.783 13.2885C147.783 13.9395 147.681 14.391 147.478 14.643C147.275 14.888 146.936 15.0105 146.46 15.0105H141.01C140.646 15.0105 140.356 14.902 140.139 14.685C139.922 14.461 139.813 14.1565 139.813 13.7715V3.6705L139.929 3.555H147.447C147.475 3.702 147.492 3.8455 147.499 3.9855C147.506 4.1255 147.51 4.255 147.51 4.374C147.51 4.486 147.496 4.6225 147.468 4.7835C147.447 4.9445 147.408 5.1055 147.352 5.2665H143.037C142.897 5.2665 142.718 5.2665 142.501 5.2665C142.284 5.2595 142.064 5.256 141.84 5.256C141.84 5.41 141.843 5.5745 141.85 5.7495C141.857 5.9245 141.861 6.117 141.861 6.327V8.364C142.078 8.357 142.291 8.3535 142.501 8.3535C142.718 8.3535 142.897 8.3535 143.037 8.3535H146.407C146.456 8.4865 146.484 8.6335 146.491 8.7945C146.505 8.9485 146.512 9.078 146.512 9.183C146.512 9.302 146.505 9.442 146.491 9.603C146.484 9.757 146.456 9.9005 146.407 10.0335H143.037C142.897 10.0335 142.718 10.0335 142.501 10.0335C142.291 10.0265 142.078 10.023 141.861 10.023V12.4275C141.861 12.5955 141.857 12.7565 141.85 12.9105C141.843 13.0645 141.84 13.2045 141.84 13.3305C142.022 13.3165 142.207 13.306 142.396 13.299C142.592 13.292 142.823 13.2885 143.089 13.2885H147.783ZM149.332 14.0445C149.339 13.7715 149.42 13.481 149.574 13.173C149.735 12.865 149.927 12.6375 150.151 12.4905C150.627 12.7705 151.173 13.0295 151.789 13.2675C152.405 13.4985 153.074 13.6105 153.795 13.6035C154.397 13.5965 154.918 13.453 155.359 13.173C155.8 12.886 156.021 12.501 156.021 12.018C156.021 11.269 155.478 10.716 154.393 10.359L152.377 9.603C151.544 9.323 150.879 8.9485 150.382 8.4795C149.892 8.0035 149.647 7.391 149.647 6.642C149.647 5.711 150.008 4.9235 150.729 4.2795C151.45 3.6355 152.472 3.303 153.795 3.282C154.516 3.275 155.23 3.3625 155.937 3.5445C156.651 3.7195 157.253 3.9225 157.743 4.1535C157.743 4.4545 157.676 4.752 157.543 5.046C157.417 5.333 157.242 5.564 157.018 5.739C156.514 5.508 155.965 5.3225 155.37 5.1825C154.782 5.0425 154.243 4.976 153.753 4.983C153.144 4.99 152.668 5.13 152.325 5.403C151.982 5.676 151.81 6.026 151.81 6.453C151.81 6.803 151.94 7.069 152.199 7.251C152.465 7.433 152.846 7.6115 153.343 7.7865L155.286 8.532C156.119 8.819 156.815 9.2355 157.375 9.7815C157.942 10.3205 158.226 10.9925 158.226 11.7975C158.226 12.8335 157.823 13.67 157.018 14.307C156.22 14.937 155.146 15.259 153.795 15.273C152.794 15.28 151.912 15.1505 151.149 14.8845C150.386 14.6185 149.78 14.3385 149.332 14.0445Z" fill="black"/>
</svg>
