<svg width="61" height="18" viewBox="0 0 61 18" fill="none" xmlns="http://www.w3.org/2000/svg">
<path d="M11.04 0.607999C11.192 0.567999 11.356 0.543999 11.532 0.535999C11.708 0.519999 11.888 0.511999 12.072 0.511999C12.488 0.511999 12.856 0.559999 13.176 0.655999L13.272 0.823999L8.484 17.012C7.884 17.076 7.272 17.108 6.648 17.108C6.176 17.108 5.812 17.028 5.556 16.868C5.308 16.7 5.12 16.392 4.992 15.944L0.528 0.811999C0.752 0.707999 0.988 0.619999 1.236 0.547999C1.484 0.475999 1.736 0.439999 1.992 0.439999C2.32 0.439999 2.588 0.527999 2.796 0.704C3.012 0.879999 3.18 1.184 3.3 1.616L5.88 10.496C6.04 11.072 6.216 11.744 6.408 12.512C6.608 13.28 6.784 13.976 6.936 14.6C6.968 14.744 7.036 14.816 7.14 14.816L11.04 0.607999ZM17.5065 14.024C17.4185 14.024 17.2185 14.02 16.9065 14.012C16.6025 14.004 16.3585 14 16.1745 14L15.0945 17.012C14.8145 17.084 14.4785 17.12 14.0865 17.12C13.6225 17.12 13.2545 17.064 12.9825 16.952L12.9105 16.832L17.6985 3.92C17.8905 3.888 18.1225 3.864 18.3945 3.848C18.6665 3.824 18.9025 3.812 19.1025 3.812C19.2865 3.812 19.5025 3.824 19.7505 3.848C20.0065 3.864 20.2305 3.888 20.4225 3.92L25.1865 16.892C25.0025 16.98 24.7825 17.048 24.5265 17.096C24.2785 17.144 24.0465 17.168 23.8305 17.168C23.5025 17.168 23.2265 17.1 23.0025 16.964C22.7865 16.828 22.5985 16.528 22.4385 16.064L21.7065 14C21.5465 14 21.3185 14.004 21.0225 14.012C20.7345 14.02 20.5425 14.024 20.4465 14.024H17.5065ZM17.9145 9.116L16.8465 12.092C17.0225 12.092 17.2305 12.088 17.4705 12.08C17.7185 12.072 17.8825 12.068 17.9625 12.068H20.0505C20.1305 12.068 20.2745 12.072 20.4825 12.08C20.6905 12.088 20.8745 12.092 21.0345 12.092L20.1585 9.62C19.9825 9.108 19.7825 8.496 19.5585 7.784C19.3425 7.072 19.1545 6.448 18.9945 5.912H18.8865C18.7425 6.424 18.5785 6.988 18.3945 7.604C18.2105 8.212 18.0505 8.716 17.9145 9.116ZM37.0434 8.12C37.0434 9.544 36.5754 10.612 35.6394 11.324C34.7114 12.028 33.5194 12.38 32.0634 12.38H29.9394V17C29.7634 17.032 29.5674 17.056 29.3514 17.072C29.1434 17.088 28.9474 17.096 28.7634 17.096C28.5954 17.096 28.3994 17.088 28.1754 17.072C27.9514 17.056 27.7514 17.032 27.5754 17V4.04L27.7074 3.92C28.4354 3.904 29.1554 3.888 29.8674 3.872C30.5874 3.848 31.3194 3.836 32.0634 3.836C33.0234 3.836 33.8754 3.988 34.6194 4.292C35.3714 4.596 35.9634 5.064 36.3954 5.696C36.8274 6.328 37.0434 7.136 37.0434 8.12ZM29.9394 5.66V10.556C30.3154 10.548 30.6994 10.544 31.0914 10.544C31.4834 10.544 31.7794 10.544 31.9794 10.544C32.6914 10.544 33.2354 10.416 33.6114 10.16C33.9874 9.904 34.2434 9.588 34.3794 9.212C34.5154 8.836 34.5834 8.468 34.5834 8.108C34.5834 7.74 34.5154 7.372 34.3794 7.004C34.2434 6.628 33.9874 6.316 33.6114 6.068C33.2354 5.812 32.6914 5.684 31.9794 5.684C31.6754 5.684 31.3474 5.684 30.9954 5.684C30.6514 5.676 30.2994 5.668 29.9394 5.66ZM48.8475 15.044C48.8475 15.788 48.7315 16.304 48.4995 16.592C48.2675 16.872 47.8795 17.012 47.3355 17.012H41.1075C40.6915 17.012 40.3595 16.888 40.1115 16.64C39.8635 16.384 39.7395 16.036 39.7395 15.596V4.052L39.8715 3.92H48.4635C48.4955 4.088 48.5155 4.252 48.5235 4.412C48.5315 4.572 48.5355 4.72 48.5355 4.856C48.5355 4.984 48.5195 5.14 48.4875 5.324C48.4635 5.508 48.4195 5.692 48.3555 5.876H43.4235C43.2635 5.876 43.0595 5.876 42.8115 5.876C42.5635 5.868 42.3115 5.864 42.0555 5.864C42.0555 6.04 42.0595 6.228 42.0675 6.428C42.0755 6.628 42.0795 6.848 42.0795 7.088V9.416C42.3275 9.408 42.5715 9.404 42.8115 9.404C43.0595 9.404 43.2635 9.404 43.4235 9.404H47.2755C47.3315 9.556 47.3635 9.724 47.3715 9.908C47.3875 10.084 47.3955 10.232 47.3955 10.352C47.3955 10.488 47.3875 10.648 47.3715 10.832C47.3635 11.008 47.3315 11.172 47.2755 11.324H43.4235C43.2635 11.324 43.0595 11.324 42.8115 11.324C42.5715 11.316 42.3275 11.312 42.0795 11.312V14.06C42.0795 14.252 42.0755 14.436 42.0675 14.612C42.0595 14.788 42.0555 14.948 42.0555 15.092C42.2635 15.076 42.4755 15.064 42.6915 15.056C42.9155 15.048 43.1795 15.044 43.4835 15.044H48.8475ZM50.6184 15.908C50.6264 15.596 50.7184 15.264 50.8944 14.912C51.0784 14.56 51.2984 14.3 51.5544 14.132C52.0984 14.452 52.7224 14.748 53.4264 15.02C54.1304 15.284 54.8944 15.412 55.7184 15.404C56.4064 15.396 57.0024 15.232 57.5064 14.912C58.0104 14.584 58.2624 14.144 58.2624 13.592C58.2624 12.736 57.6424 12.104 56.4024 11.696L54.0984 10.832C53.1464 10.512 52.3864 10.084 51.8184 9.548C51.2584 9.004 50.9784 8.304 50.9784 7.448C50.9784 6.384 51.3904 5.484 52.2144 4.748C53.0384 4.012 54.2064 3.632 55.7184 3.608C56.5424 3.6 57.3584 3.7 58.1664 3.908C58.9824 4.108 59.6704 4.34 60.2304 4.604C60.2304 4.948 60.1544 5.288 60.0024 5.624C59.8584 5.952 59.6584 6.216 59.4024 6.416C58.8264 6.152 58.1984 5.94 57.5184 5.78C56.8464 5.62 56.2304 5.544 55.6704 5.552C54.9744 5.56 54.4304 5.72 54.0384 6.032C53.6464 6.344 53.4504 6.744 53.4504 7.232C53.4504 7.632 53.5984 7.936 53.8944 8.144C54.1984 8.352 54.6344 8.556 55.2024 8.756L57.4224 9.608C58.3744 9.936 59.1704 10.412 59.8104 11.036C60.4584 11.652 60.7824 12.42 60.7824 13.34C60.7824 14.524 60.3224 15.48 59.4024 16.208C58.4904 16.928 57.2624 17.296 55.7184 17.312C54.5744 17.32 53.5664 17.172 52.6944 16.868C51.8224 16.564 51.1304 16.244 50.6184 15.908Z" fill="black"/>
</svg>
